<mxfile host="Electron" modified="2024-02-29T14:35:45.819Z" agent="Mozilla/5.0 (X11; Linux x86_64) AppleWebKit/537.36 (KHTML, like Gecko) draw.io/22.1.18 Chrome/120.0.6099.199 Electron/28.1.2 Safari/537.36" etag="wUCU9Wh8kn28YciVA5fw" version="22.1.18" type="device">
  <diagram name="Page-1" id="rN4PaMpMGpdUSb5NYGMQ">
    <mxGraphModel dx="2350" dy="1979" grid="1" gridSize="10" guides="1" tooltips="1" connect="1" arrows="1" fold="1" page="1" pageScale="1" pageWidth="850" pageHeight="1100" math="0" shadow="0">
      <root>
        <mxCell id="0" />
        <mxCell id="1" parent="0" />
        <mxCell id="GlH7Y8rs6A_fCsLxcxdf-113" value="" style="group;fillColor=default;opacity=50;" parent="1" vertex="1" connectable="0">
          <mxGeometry x="100" y="-290" width="210" height="180" as="geometry" />
        </mxCell>
        <mxCell id="GlH7Y8rs6A_fCsLxcxdf-57" value="" style="rounded=0;whiteSpace=wrap;html=1;opacity=50;strokeWidth=3;container=0;strokeColor=#6600CC;" parent="GlH7Y8rs6A_fCsLxcxdf-113" vertex="1">
          <mxGeometry width="210" height="180" as="geometry" />
        </mxCell>
        <mxCell id="P0AFOmnKXR1hHFCW5aUR-54" value="" style="aspect=fixed;sketch=0;html=1;dashed=0;whitespace=wrap;fillColor=#2875E2;strokeColor=#ffffff;points=[[0.005,0.63,0],[0.1,0.2,0],[0.9,0.2,0],[0.5,0,0],[0.995,0.63,0],[0.72,0.99,0],[0.5,1,0],[0.28,0.99,0]];shape=mxgraph.kubernetes.icon2;kubernetesLabel=1;prIcon=ds;container=0;" parent="GlH7Y8rs6A_fCsLxcxdf-113" vertex="1">
          <mxGeometry x="131" y="23.069999999999936" width="50" height="48" as="geometry" />
        </mxCell>
        <mxCell id="P0AFOmnKXR1hHFCW5aUR-46" value="" style="shape=image;aspect=fixed;image=data:image/png,iVBORw0KGgoAAAANSUhEUgAAAPMAAAEKCAYAAADHHGNaAAAgAElEQVR4nOydd3wc1dX3z7kz24ukVe+SZVm2LHcbdxubkoTw0i1aEkIaCaQ8JA8JuLCRC2nkQwohCQFCN9j0UAKmWHJvuBfJltV7165W22bO+4cxjzGWtLszs7Mr7/c/S3PvPVrPb287BSBGjBgxYsSIESNGjBgxYsSIEdUsX2X/4QN2e7HadsS4uFixwn7pAyvtt6htRyDwahsQKIygkUQ4smLVg+uRxNVr166tVNumGKOXB1atWsiIlQHCpRwJRWrbEwiotgGBYrfbmV+gk4A4hohERHjxM1GfVNu2GKOHB1atmo+Av0bAywEACOjdh9as/rradgVC1IgZAOCBlQ/+giE+fPbfn4n6eSRxbUzUMaRwvojPggRfX7u27F217AqGqBKz3W5P8ovQCAC6c39ORCIAvsBAWBdbfscIhgdWrVqIgA+eL2IAAAKoO3niWMHGjRsFNWwLlqgSMwDAilUPrgfAoQ4kCIBeRhIfWrt27eGwGhYjmsAVK+yXAcJKQFg8zHP2dWvKVofNKolEzQHY54j4b2AwlJgRAG8h5G5ZvurBN0DA3zz0UNnusNoXI2Kx2+1MEOBqEWA5IMwesYHofyYMZslG1M3My5Yt4wqLJjQiYlpADQg+ElH83W/WrPkQAEhZ62JEIj/4wQ80yWlppSDC/YBYElAjgvJ1a8suVdYyeYk6MQMALF9l/xMC/CyYNgSwnwge7mpv2fj444/7lLItRuRgt9vNPhG+AwA/R4DcYNoSwF0PrSl7XCHTFCEqxXz/qlVzOWDbQ2lLAA1A9FfR733it7/9bY/ctsVQnxUrVmQTcj8GgB8gYnwIXQg8g7SysrJOuW1TkqgUs91uZ5+daqeH2gcRuRDgWQTx0bVr1x6V0bwY6oAPrFq1gBH7CSDcAABcyD0RfLJubdlS+UwLD1EpZgCA5avs/0CAu2TpjKAcGP2dR3y9rKzMK0ufMcKC3W63+kS4DQDuRoBJcvRJAPc+tKbsT3L0FU6i7zT7c8R3AJg8YkZYDISLfSK1r1hlfwZJeDJ2Xx3R4P2rVs3hAL/jF+FWBDDJ2Tkj4R05+wsXUTsz/+IXvzDpjeYeANAoMgDBDiB6hudxY1lZWbciY0gD77vvPjMzGhM0gpAgIJoBwMgRMwkARsZIBwCMCDkUiQMAIIYCEPiRkQAAXhRxgAhcAhMHeCKnKIrdg4OD3Y888sigqn/ZEPzKbs/jRbiNAL6FAMr4SxOdXrd2dYEifStM1IoZAGDFSnsFICxUeBgfAb2DCC/xiO+UlZU5FR4P7Ha7XhCEXCIuFzjKBcJcAMokgDQATEeANCJKRESlVlYeAOgkgFYAagHCFgBqQga1IlGtyFidHqCxrKzMr9D4n2O329N8ItwEQDcj4AKlxwOgx9etWS3Pii/MRLWYl698cA0irgzjkIMEtAlFeBdAeHfdunUNUjr71a9+Fce02hIm4mRiOAGAigCwCAFyIML/b4jIjwCnAbCSgCqRwQlGdIgxdrSsrMwloWt8wG4vYiJcRUDXI+B8COdngXTbutWr14dtPBmJ6BdmJJavWvUVBPZftcYngKNItAkBywXBu+M3v/lN21DP2u12m98PMwlpFgLOAqApgJgXPmvDBgHRSQA8SEB7CGm3lrF9Q61oznhlCYXE2DwguBQALwOAzPCa/H/4GeT+rqysXq3xpRDVYrbb7Ta/CF1q23EWImpHwJMA0EwATgDgASkZCcYB4hi17VMLIhIBsRIJqgDpzN0+YRwh5ABREZ7Z70cCLevWlGVClHoKRrWYAQCWr7KfQoCoPLCIEVkQ0FsPrVl9rdp2hApT2wCpIMEBtW2IMUqI8ncp6sVMQDHvrRiywACjOmx2FIgZY84dMWRCiOp3KerFzKNYrbYNMUYHHMdF9bsU9WL2+/21atsQY1TQIfF+XHWiXsxarbYDAKIiR1OMCIaoSW0TpBL1Yi4rKxOJqENtO2JEOzikw0+0EPViBgBAgEgMhIgRRdAoeIdGhZgBwK22ATGinqh/h0aLmKM4LjtGhBD179CoEDMhWtS2IUZ0gwBWtW2QymgQMyJAYGl3Y8QYAkLIUtsGqUS9mFesWJEDAAa17YgR3SDA+GXLloWeBDACiHoxi8jPV9uGGKMCU1FR0WS1jZBC1IsZkW5W24YYowNCLmrDHwGiPJ75Abu9hIlwCKL874gRGRBRs88zOP4Pf/iDQ21bQiFq9wj33nuvQaPRvYUAGWrbEmN0gIgWxvOFaakprx07dizqso1EpZjtdnsSx+veQoS5atsSY3SBgMW2xOTCqVMmv7179+6o8vmPuuXpypUrp4jIvRlsIbAYMYKCYJsoeG8cLkljpBFVYl6+atX1QPg8IhrVtiXG6IcAGojB1b8pKzukti2BEDWn2StXPvgzBPZqTMgxwgUCZDMRtq5YYb9SbVsCIRpmZlyxyv47ALgvbAMiQlxcXGuCLb7bFp8woDcY/FqNVgQC8Pl8OOh2abp7e0w93b22vr6+NKKoOyuJSDQajdeWkNCaYLP1Wi0Wt16vFzQ8RyIQeNwezukc0Pb09Zl6urpSBlyu+DB+7gIgfXfd6tXPhGvAUIhoMS9btowbN37CYwD4AyXHsSUkNE+ZMqWmqKiQUpKTU7RabQ4A6ANs7vZ6vQ1dXd1tp6pP08EDB7LbOjryYgIfHo7nxYL8MScmTSruzMvNM1itlgyO44JJft8/ODhY39bW3nPs+HHt4SNHxzocjkTFDAYAJPqftWtX/1nJMaQQsWK22+3MJ8BTiHCH3H0jIuTk5hxfeunijtycnFye52U9TBMEobWxsfHk1u3brSdOVE2JCfsMWq12cNYlMw/PmTUL4+LiShhjsrrher3equOVla3l5Vvy2tvbc+Ts+xx+tW5N2e8V6lsSESnmM8XU6Z8A+D05+9XpdK4rLlu6d+bMGdk8z+fL2fdQCILQfPz4iZPvvPdeicPhVHTmiFTS09Nrr7n6qubMzMypjLGwnHkMDg4eqdiyxbF9x65LBEGQ+wr2vnVryh6WuU/JRKKYcfkq+x8R4F65OtTr9c4brrtuX3Hx+KkAECdXv0HiaWho3PPyxlcLent70lWyIazkZOecKl12Q298fPxMtWwQRbFlx86d1R98+PEcwe+XLWaZAO56aE3Z43L1JwcRJ+YVq+y/BIDfydEXx3HCV6+8Ytvs2ZdMYowlyNGnDHhPnare+dKGjdPdbnek1FiSlfj4uI47vvmNU8nJyRHj1CMIQuM77/23Zc+evbPk2PYQkcgAl61dW/aaDObJQkSJ+YGV9lKG8LIcfeVk51Te+e1vgkajUaYot0REUex4//0PT23fuWPuaNlTM8bg61d9deusmTNnyL0flguHw/Hpk089ndrZ1SW50iQRuUHExQ89VLZbDtukEjFiXr7cPhMYbUHEQE+RLwhjjG5edlPFxInFCyAK3FU7u7t3Pf74E0UulytebVukYEtIaP3hXT/oNBoNJWrbEgCuzeXlBz76ePM8qV+kRNSq4XBWWVlZo0y2hUxEiNlutyf5BNqPiJKyPVgs5q57fvTDBrPZPFUu28KBIAjN/3762f7aurrxatsSCtOmTNl/443XjwH1ziNCorOze+ff//nPKR6PR9Iqggh2aThYVFZW5pXLtlBQfeay2+3ML8CriDhdSj8ZGRnVP/3x3Zxerx8rl23hgjFmmT59mtXj9e5uaGjIVtueQEFEuPaaq7dcfvlll0Dg9/IRg9FoyJo3d07toSNHvO5Bd8h55BAhSyCI31JR/p6c9gWL6mJesOjS+wDhh1L6mDB+/ME77/hmFsdx0Xz1wxWOLci2JSSUHz9Rmae2MSOBiHDnHd/aVjJx4gKIkBVeKHAclzh71qzBkyerWx0Ohy3UfhBg9sLFi/Zuqag4Kad9waCqmFeuXDmJAF9CxJDtKCkp3n/bLTdPGC0+22lpaXkZ6enlh48czVPblqFARLjr+9/fnpubMypSNjHGTLNmzmDV1dUNfX39oU8IBJcvXXLps+Xl5QMymhcwqonZbrfzIuF7iBjyqeL4onGHbrv1liKIwiXecCQlJeWlJCeXHzl6LE9tW84HEeH7371ze3Z21jy1bZEZ/Yzp09mJE5WtDqczpGtMRDQJIuRsqSh/RW7jAkG1qCmvQD8DxJAPqjLSM6pvu/WWMTBKM3OWlExcfNllS7aqbcf5lC67cUtOTs5oE/JZEu666/vGuDhryDHMiHDzypX2q+U0KlBUmZl/ZbfnMIJXEVETSnuLxdz10x/fDRzHJcltWySRn5eX0dLSerizszMi8oLPnztv9/z5c0erkAEAgCGaZ82c0bR9x06LKIoheozRvKVLLv1neXm5X17rhkeVmZkXaV2oe1zGGP3knrubgoywiVb4W28pzTSbzZ1qG5KZkVn9ta9dOUltO8KBVqst+sH3vrMv5A4Q8/wi/I+MJgVE2Gfm5Xb7dCT8W6jtl914Y0VWVuZsOW0aDkEQqLOjo6Otvb2zs6OzR/D7fRqNRsvxfFg+O0Q0Tpk8qXL7jp2q+XNrNBrvz356j5PjuORwjdnf3+9oqK9vqauvb21va+vyeDxug8Gg58P0uVsslmyv17uzvqEhJN8HIpqzdMml/yovLw9bAffwF8sSaU2oNxn5Y/KPTZ5cslBmi77E8WPHqv/48MPNJ6tOprs9nmwESDnvEeJ4vj41NbXl0iWXeq+7/voxOTk5iq0ULBbLtCsuv2zLB5s+VPxvvxDfvP223RqNZoGSYxARvP7667ufeeopbO/oyCeRkgDg/Ltf4ni+Pic7q/HyK66g62+4odiWmKiYz/2VV1xefPjIkY6+vv6gv8QQ0ewT6BcA8IACpl2QsM7MK1eunAbIQgod4zhO+PHdP+wPxz45OTnZVjhunP/TfXvbe3t7LxQqiSSKcQ6HI+vwocO5GzdssL780suHiMTqiRMnZnAcJ/v2JTs7K2HP3n0Or9cb1iu4/Py8qsuWLpkKCt8lIyKMHz8+MzU9vWPXjp0ur9d7/hcowGefe29vb/an+z7Nef6557XvvP3O3rS09M7cvNw0RHlNRERd8YTxR3fs3BXSFzUiTps/b+4/t27dOiirYUMQVjEvXHzpnwFwYihtr77661tzc7IleYkFQ3Jysu2mZcuy0zMy9laUl1sAQDfc816vJ3Xvnj3Zzz79TDMiOzJl6pRsOV8uRNSNLSjYv3vPXqWC7i80Jtxzz90dfJiW14gI+fn5ad/41jdTGhsayqurq/NGeJ45nc7MDzdtStv48sbDE4ondGVkZspqq8FgyOzs7trf1tYeyjZHi4zr3VJRHpZbibCJ2W63Z4iE/4IQDt0MBmPfzctuTEfEYQWlBOPGjcuYNn3a6XffeccEACOevhORdd/evdkbXn758Lz58902m022AAqz2Zx94kTVaYczdE+lYFg4f97O8UXjwu7njoiwZOnSvP7+/i1Hjx4NKAuMx+NJffedd5N379q15bIrLk/RaDQh3ZRciKJx41wVW7YmEFEo384TJowv+uu+fftEuewZirCdZvsE+j6E+OVx0w3XHWCMqVY/d8bMmRN++KO7DwTTxuFwTPrmbbcnP/P009tlNAVvvWVZl4z9DQnjOPGyy5aqWub05//7i4X5+XlBfX6HDh1a+JUrrmw9WXWyRi47eJ4vmD93zq5Q2iJiRkpK+tflsmU4wiVmBMSQcnkZDMa+oqJxs+Q2KFjuuPOOeVZr3OFg2hCR8e9/e2zer+67r1yumOWEhIRLUpJT6mTpbBgWzpu3i+d51WsW//Wxx4oAIKgTYZ/Xm//N229PKt9cflAuO5YuXZIa6rZJRLpTLjuGIyxiXr7cPhsBQsq59ZUrLzsAAKr7XSMi/PCeH4V0kFG+uXzx3T/6UYVcgr7u2qsVFTMiwuLFCyPCIScpKSlxQnHxpyE0tfzyvvvGb/pg03457NBoNPlTJk8OxQ4Agqvuv/9+xTPdhGdm5qA0lGaITJw2dWqhHCbIIaSrrrpqCgCEFLO6f9+ni1atXFku2QgAyMrKmqnVahU7Ic3Pzzuu1Wpl+dzloPTm0pBcdhFAt2rFiqJPP/30hBx2XHnFZSHtexGRR16n+FI7LGJGoq+F0q54QtEhjuMkV3ncuWPHkVMnT0neQ+n1ep1erwt5Vvzwg02L3/7P23ul2sEYM86aNTOoPXwwXHHZUln25S88//wOOfqZMWOGlBhv449/dE9CZ2en5L/JarVOt1qtHaG0RSTFaz8rLuZf2e05gBhSBo2FCxc4pY7v9/vFX973S11zc3O/1L4AAPR6gySPnrVrVo/t6OiQ7J45f95c2U5rz4UxRpmZmcVS+zl+/Hj1X/78l+kej0dy9o34+HhJS1RRFFLvvOPbNTKsztjCBfNCmuURcIndbldUb4qLmSdaHEo7xhhlZWaGdCd9Lk89+dQOr8dTWFlZKfmLAQDA7fFIC7ckiP/pPT+ukmqH1WKZpNFo3FL7OZ+xY8ccY4xJuvoSRRHu+dHdHgTQtbW1hTSTncuAyyU5PrijvX2mHCuFyZMmhZoaKdELoGh+NOWX2SJcEkqznOysSgCQ9I3s8/mEZ/79dB4AwO7duyTf83k9Ht+gyyXZaaOmpmbegf0HKiV2oyueWHxEqi3nM23q1B6pfTz37LPbXQMDxQAAJ44fl1wS9ejhw/VS+wAAeOzRv+W73W6PlD5MJlOxLsTzChRC00KgKC5mAgzpWmnqlCntUsd++aWXdwuCPxMA4MSx4/lSl1kffLDpICLKEj+9uqysV2of0yZPlt2Jf0x+vqT7fFEU4YnH//X5OcemTZscUm16af1Lkj8rAABRFNP+8dhjUtPi8uPHFx0PqSWCog44SosZESGk/fLYsQWSs4c8+/QznyeZ9/v9WVLvHf/+2N9k+7yam5pmSd07Z2ZmyHrdgYhgMBgkJUT86MOP9vt8vryz/96xbUeeIAghf4v29/c79u3dK5sIXtn4ao4oSlukFU8sDnHLRlMkDTwCior5/vvvt0GI6VfNZrOkgPzGxsbm/v6+L8Tfrl1dxof6Yr322mu7uzq75PQNZ88982xo3/CfYTAYChGZbG6CKclJtVJrQf37yae+sAT1+325Tz7+r22h9vfz//mfAwQgm/ef3+/L3bVjh6TtSXZmpimUdgioaH0zZU/XmC4k4zUajZvneUkpZ19ev/7U+T9zOgcm/vx/7t0S7HL78KFDVb//zW8nSLHnQnzw/n9DTu/6GXqbzdYsizEAUDCmoFVKe0EQ6HRN9ZdOwp988skZWysqDgXb32OPPrr1yOEjsod97tixU9K5gMlkCvW6NMNut2uljD0cCov5S3HAAZGclNwEEkPuyjdvvuDedtfOnYvu+Oa3tjmdzoBOSDdu2LDr+9/9XgZ8ObZWMj09vSUul0uS80dmRprks4WzZGSkSzocOnbs2Ckg+FJgCSIa/vcX/zvhqSefDGiG9vl8wq/uu6/82WeeVSSGurauVtLhCcdx6RqNJpSUQAhfjo2XDUXFTIxCCkdLTk6UdOBBRNDe0TGkB1NVZeX8Ky+7vP9fjz++bXBw8EvXO6IowscffXTg6q99bd8f//DwbABQpMAbIvKHDx8+LaWP9PQM2dK6JiTYJL0PO7bvGO6LRfP4P/45/5qrr967a+fOoxdaHblcrsGnn3p6+9JLl9SXby4P6UozENpa2iTf0dsSEkJaEQmCoJhbp6KZRojQEsr0mpScLGm2amlpaQWCYffcoiimP/mvJ9KfePxfg/Hx8YeSkpOdCETd3T3G7p7ufCBlTx7Pcujgwd7Zs0PPgmS1mGXbM1utZkkhpieOHRVGeqa9rX3mz37yU+AYa7clJdXHx8V7fH4f6+zosDiczkIEUDxhYF9fr2Rf//i4OEdbe/CLIiIuOsUMIc78FpNJ0gt66uTJdoDhxXwWRDT09fVN7uvrkzJkyNTX1UvK4Gi2mGXLgMDzvKT3obW1PeD2giimdLS3p3ScI4hwlcVwD7olXy+aLeZQtySKaU7pq6mQ+uc1vKQ9TXNzc9iSqEnF6ZR2DavVamXTAMdxkpafAwMDiriYyo1P8Eu+9tRp9aG6qSqWpEBRMSNSSPs5DS/tnXA4HCMu9yIFvyBETJ0mlJjnSCQxYv6W4UAi6bMjUkjaEZmo2LupqJhFEUNau/p8PknjMpkTuymJ2WSWWCBYJkMAwO/3S/rgtVptVHyJkgyzo8/nCy3lFmOKZYpR9mqKoDuUdgODg5LUaI2LU726ZaBkZmRI+j9wDbpkW7ZJFXNCQryq9YkDheN5ybHgbrc7tP83rzc6xSzwUBtKuwGnQ9IyaPyECVFT2rVowgRJ115OpyzBYAAAMOBySRJjfl6+jOsE5TAbjZI/tL7+/lC80nxarTY6xawDqCeioGeOtrZ2SS94cXHxWECQxTlfaWbMmJ4npX1vT69sp6PdXT2SlskzZs0Myc0x3KSmp0u+m+/q7gk6rRIBnC4rK1Os/pSiYi4rK/MCYtAZPlpa21KljMtxHOZk50jyew4HGo2mVmpFhobGxlDja79ER0fgV0sXYu68eWNB1l28MkydNlWSjaIoulwDAyF87qRoIXbFQyCRIOgkaA6HI1UURUnXSzeVlqpWrjZQJk2eLDlOt7W1TbayOKfr6iQlJYiLi4szmkwR/yV65Ve+IikVldfrrQ8lnBYBZUkuOBRhiGemoKvpERG4PR5J32LXXnfttEhfan/nu9+RlAFTEIRW58CAbB5FzU3NYwBA0lL7K1deqXrFyuHgeb5h/PjxBVL66OjoCGnfSyCGlHs7UBQXs4hUEUq7xqYmSULU6XTaS2bPDjpSJ1xodbqTM2bOlJRrq6+vr1YmcwAAwOfz6bxeryRf8e/94AclEGIG03CwZOnS01LLBlVVVYfUTsNYdItZx9geAAjazenIoSOSD1MeWL68CCL0xfr2nXd2SH6pTp6U/W9raGxskdI+MSnRNnHiRKnZPBQBEV33/vzeyVL7OXj4cNAJHAhgX1lZmaKrFsXFXFZW5iegj4Jtd+TYsYkgUYjp6emp02fM2CmlDyXQajWnv3XHt+ZI7Wfv3v2yV5z49MBByUEIax5aN5aIZE82KJVFixftkXrg6Pf767u7u4I+oEWA/0oZNxDCkzcb4bVg23i9XoPD4ZCcsO43v/vtFIYYkvOKUqyy/7qP53lJn70gCI1t7W1j5LLpLMePHZ8IQZaDOZ+MjIy0pZddpuiSMlg4jmux//rXkssc1dTWhpQ3nYH4ptSxRx4jDPg9nreIKOhZdtfuPZI9deLi4uJ+eu//SE5tKxfjioq2XXHlFdOk9nOqurparnI35+L1eg2dnZ2SazT9enXZXJ1O96VsL2qxZt3aNqPJJHnVUVGxNehZmQCq16xZI7n4wUiERcy/+93v+gDhrWDb7di5axpInCUAAG659dY5RUVFYamROxw6na76H4//U5Y8Yh9vrpBc6WMotm7fLtkdVqfTaZ946ikOEGVLnhAqiy9dXL70ssskx6f7/f7a2rq6ccG2Q4AXIQz372G7iyWgx4Nt4/F4jE0tLbLczT3+5BOXBFvFUU4Qsf2Fl9YbjEaj5Fhat9t9tKmxUbFaUPv3H5whCIKkfGAAAIXjCvN/XfbrE0SkmNfTSGTn5Oz8ze9+J0vWkn2f7m8MYTVEIPqflGP8kQibmLWMfUQAQZ/pv/nGfyRl6TyLTqfTvvL6q3lGgzHsTg2I2P7vZ59xZmVlyTKbVmzZomgmBUEQuCNHjkpN0g8AAF/92tdm/OK++/apIei09PTdL6x/cSZj0l9zURRdH338cfCzO8Hb69atU7wEL0AYxVxWViaiSI8E2665pbmg3+GQZb9htVotb737do7Nlhhaac4Q0Go1p1/a8LJ3/PjxshxWCYLQtG37ztDzDAXIe/99fzLIsMUBACi9uXT2mnXrDkEIV5ShMr54wtZXXnt1plarlcV3vaambp/LNRh8zADBn+QYPxDC6vLI8/hvIgr6rm3jK6/K5sBvNptNb73zn6kLFy0qB4X3MTk5OTve+e9/U3Lz8mS7Qtq6bVuNIAiKh3g6BwYSKquq9sjV35VfuXL6Cy+t79YbDLLM+ENBRO5v3fGtrf9++ukFUm8MzsH9ymuvhVD3jHauW1f2iUw2jEhYxVxWVuYCgN8H266mpnZCR2enbPfFPM+zP/zx4cV//dvfjut0utDceYYBEdt/8rOf7nj5lY1zLRaLbJk9fT5fzYcfbVY84d1ZXn39zcmiKMoWY1lQUJD7wYebCr7yla+UE5Hs9aWtcXEHX1j/YuvdP/7xAqkOOedy9PjxPQ6HI2i/dSRcA2EMPAl7MMLggONRIgo6TekLz6/PAgBZHRFmXTKr+KPNn+R/9/vf28bzGsn7GmSs6+tf/3r5h598bL79G9+YK+cLBQDw+htv9hCJYfs/cw0MJOzes0fWLYlWq+XL1q5Z/Obb/+kvmTxpixzOJQaD4cQDK5bveX/TB1PGFhbmyWDm54ii2Prqq6/PDLYdAW1eu7bsPTltGQlV8ussX2n/DiIEfcJ3/XXXlM+YPl2RfMqiKMKHmz789Llnn3VVnzxZLBIF+k3syM7JPrqs9Ga87vrrZsi1Rzufjs7OnX/+y6OSvcaCBZGJD658oFqj0Shyet7X19f37yefPPTuO+/F9/f3TYQAJxhk2Dl+/IQTd/3wrvjZc+aUyP3FeZY33/rPvj17980Ith0D8ZI1a9bItk0JBFXEbLfbmU+A7YgQ1EEOIhNXPPDLKr1eH1IxukAhIqg+dap2z549rUePHvW0t7XjwMAATyKB0WwUkpOSxQnFEzTTZ8xInjBhwliO4xT9HEVR7Pz9H/7IyRkhFQw5OTmVP/jedwpA4dTMDofDuXPHzpOf7t3rOH26Bnt7e3mf38c4jpHBYBRSklP8xSXF/Nx589KKiooK5DilHtGHgO4AACAASURBVI7Ozs5df/rLoyEcNtJT69as/q78Fg2Papnvltvt00GgPYgY1P9ISkpK3Y/v/mESYywqslrIwcbXXt978MDBoJd6cnLTDdeXT506RbEqE5GGIAitv/39w6bBwcFgyxJ18QzGKx1UcSFUS3y3pby8ZeGixSZEnB9Mu4GBgXi32/PpuMKxsgcZRCInTlSWb9r0YdgOvYa0o7Iqd+aM6ft1Ol262raEAd8zzz3f1N7eEfw7hvTDNatXqxLco2o2Dg2HdiA6Fmy7HTt3zqmsPBlSnHQ00d/fv/eF9S/LXgUxFERRxL88+thYv99fq7YtSvPxJ5v3VlefDj7WnOD1datXP6+ASQGhqpjLysrcxOHtABB0qY/nX3xxUUdH5w4FzIoI3G73iT/95dHicJ5ej8Tg4KD1sb8/jqIoKpZhUm2Onzix5eNPNs8Nth0RtfIc/BBUzIGmen7pLeXlrQsXX9qJAFcH23bfp5+mTZ0yeb9er1cs6EANfD7fyT8+8udUt9stexlZqQy4BuJPVp1snjlzBgKAZD/zSKK2tnb7s8+9EHQZWSISkfCaNWvKjiphV6CoLmYAgC0V5fsWLV5cAIBBZYEQRZHbuXtPytQpk/caDAbZEtupidfrrfzjI39OcrlcqpxcB0K/w2E7dep0/bRpUxARJYcVRgI1NTVbn3r62fkhJepDXL5ubZlqy+uzRISYAQCWLrn0PUGEKxAhqEMHImK79+xNKxxbsN1qteYoZV84cDqdB/74yJ/zBgcHZUufqxR9/X1Jhw4f7Z41c3oPY+xLBdajiQMHDm558aWXF4YiZCJY/9Dasp8rYFbQRFRRJrvdnuYXaAcg5gXbFhHh61d9tWLO7NkLQOWzgFBoaGjc8sRT/543kt91YUrLEZ7zC4KfZwIwJgIiAAEDAIaiiEwkDkDkgETG+4lDEBmKhIwICAAQgEREn8g4n1/DuQVe4/ZqDQMencnp0dlE4oK6SzaaTD0//tFdp61Wa9COFRGA65133juyY9euS0JpTAS7Bgf6lzzyyCOyu6aGQkSJGQBg5cqVhSKwrYiYEkr7cePGHr791lsTOY6Lin20KIoD72/68NC2bdsDOnS5Z/F/t6XH9wV1nRcUBL1HmrIPvrRvXsB3yogI1197bfn06VMXQASt9obD6/VWP/7EU3xra2tuSB0QneA5XKjGffJQRNwHX1FR0b140cKPAFkphHDA0tXVnbpz1y4YVzhur9lsjuhlt9PpPPD3vz/OKquqAo7IEQnbJqQ3K3c+gADP7lpkcvu0QR2+HT9xIu90be3JyZNKHIyxiN3vA4BQWVm59bF//muSo78/pKT/BNAgcLh0XVmZpEymchNxM/NZVq5cOU0E9iEihlxlYVzhuMO33HyTTqvVBp3qRUkEQWj/+JPNpyq2bJ0X7D6N50Tfg1e90scYSUqgPxTHWjLLX9y9IGRPL47n/ddf+/+2T50yZRZE2Gm30+k8+NzzL8Y3NTeHNhvDGSGj6F+ybt062aPtpBKxYgYAeOKJp37W2Ny8wufzJYfaB2OMFi6Yt2PJpZdm8zyfLad9IdBz8OChQ2/+5+1ZXq835FPg66fuqpiRW7tITsMAAESC9nXv3mD2+DWST6jj4uK6bim96Xh2dvZsANDIYF7IeL3eqjf/8/bAoUOHp0lJgqjVapuQhK88+OCDql5BDUXEivmVV17J9RM7QqLQe+rkSdHt8UhaMnMcJ8y55JLdl122JE6r1UqqJBEsfr+/fu/efbWbPvxohsfrlexTruEEz8qrXu3iGMl6LvDR8YnbPqkqkXU/Hhcf33nN//v68aLCwhIACOvy2+FwHnj/g03iwUOHpkvNZGo0mioLxhbYEPClm5fd8FOZTJSViBQzEeGGja9/AAiXf/bvrurq6k6Xa6BIjv6zMrOqLr98SeuY/PxCxpgivsaiKPa3t7cf/mRzuen4icopoijK+lnPy6/cedXkA7KFRPr8XNWad28sFEmZWEKe532zZs48MH/eHIiPj58MADolxvH7/XUnqqoaPv54c057e7ssZybW+Lj9udm54xDRBAAgAvy/W5fd8LYcfctJRIp5w4bXf0BI/zz3Z0Q00NjQeLynt1u26CFEhMzMzKpZM2a0FhYWGK1W61gACPXO1O1yuaoaGhp79u7dF1916lSJkul9EAGWf/XVIwatv0SO/l7aM3//keYsyfm8A0Gr1XpKSiYemTJpsiszOzNZr9UWQIhLcUEQOvr7+2uOV1b69u3dn9Xe0Z4rZz7xlJTUbampqbMR8ZwrO+oUfHzJbbdd2ybbQDIQcWJ+9dVX030CVCLil05TiYh6u3sqGpsbFyuRAB4RwWK1tudkZzalp6UNJCelCCaTiRmNBp7nOQYAIAgCeTwev8s1KHZ1d0FbW7u+tq4htbOzMzvcftT5ye3HvjvvE8lbhv5B497ff/D/VAux5Hjen5qc0piZmdGRnpbqTkhIQLPZhLxGw3NngpbJ6/eLnsFBn8PppI72Dk1La6uxobEpx+l0Jij0Lgj5eWO2mS3mC55NENGGW0pvvFn2gSUQcWJ+aeNrzyLAN4d7ZtDt3nHq5MlpRKI+XHZFKj9b+t6OZEt/0IEBn0MgPrb5yprm/gRJZU5HExzH9xSNK6rjNfywqXWR6NrS0huDLu6gFBHlKbV+4+vzRhIyAIBBr587sbi4waDT1SpvVWTz3M4FuRBC6Z+zNPYlbI8J+f8wmy1Hi4uLB0cSMgAAIfz9uefetYbDrkCIGDFv2LCBY0SPBvo847jCsePGpSSnJG9X0q5Ip9tlyTjZnh5iMDy5Xti1MKLu4NUCESk7O7s8f8yY8YgY4C0BZmh07uXKWhY4ESNmQv4OQAjqAAaRGdPTMuaNKyzaxjhOtpSw0caGT+dOBYCeYNsdaczZ43AbQnKbHU1oeE37hAkTDiQk2BZjsF6RCPdu2PBm0PWalSAixPzuu+/qAOjXobbXG/TzJxaXOKzxcbLUpYo2Br1a686asUHV0RIJ2l87OEtyidNoBhEhJTVl2/jiYh3Pa0I6yUcALYH/YbltC4WIELNjYPAuAJTknYUI6Xk5edPGFhZuZchUrzwYbt49PHWeX8CGQJ/fXDmxyiuDp1e0wvN82/iiCXvTUtPnI4C0kFPEa1969dWwp0E+H9XF/Oyz75uIcIVc/RkNxgUTSyY6k5MSdyiVSzkSEYnj3z8+tSmQZ30Cd2pz1UTlIq8iGhQzMzIrJkyYYNRoNfJdx4m4Tra+QkR1Mev1A3cjgqz7NkSWmp6RNXfChAn7L6YT752nx81x+zQjJkh8/cDMfqU8vSIZi9V8uKRkYnViUtIiRCZrSiYEWLp+4+uXydlnsKgq5nfffVcnAtyrVP88r5lWWDQ+My9/TAXH871KjRMpEAFs2DdPGO4Zh1u3/3BTniwF36MFnVbXWDiuaEd+XsEkxjjF6lozElcq1XdA46s5eL9z8DZEUDoPs8ZqsSwqnlDMsjKyKhhjQWcCjSaq2tIm9QyYdl3wlwT04q4FZgUcpiISjuN7xowZU1E0fnyqQa8P3bEmUBAv3bDhtZCylsiBamImIgSE/w3XeIhotSUlLpo4cVJ3elr6FsaYL1xjh5vndi5MA/hycfOWvoRtDb1Jis1MkQLj+P7cnLzy4uIJvNlsWQRhDMEkoF+Ga6zzUW3ftH7ja19jAO+qNT6R2NbV1V3Z2toyWxRFRSJ41OQ78z+pGJPUfo5fMbl+//41zn63cdTeK3Mc35OdlX3IYjVPl3tPHChERAz4gtLSa2vCPbZqMzMjulutsQHOHJIlJSUtmlhS0p+dnVvOcXzQTheRzEt75k0Ggs/PCY425ewZrULWa7WNY8aMqSgunqCzxlkXqyVkAABERBGEu1QZW41B169/PZvxVAsRcJp+Dm7XwMDepqbGzEG3O19tY+TgqpJPt8wrOLlQEKF93Xs3mEfTvTIigtlkPpKZmTmg1elmQUS9S9TpcvZn33nnnbLWEx8JRUt0DgVy9B2IqA8fAAD0RpNpQeG4IvD7/YfaO9qdnR2dMwFIq7ZhofL+sWnzZuVWn644OaHF69eMintlxvH9qanJBxNtiWmMcbLEcssPJhlM1hsB4IWwjhrOwQDOBFSIwNcGm+xeHajX6Rw41NbWkuJyDY5XIm5WaTITuk629NrGRvO9MiKSxWo9mJqa6jLoDdMBIOJDXwlg0y3LbrgynGOG/T94/cbXrmQA74d7XKmIJNY4evvrW9tbx3g8HrUTA456EBEMBmNlSmpqm8VsKkJkqWrbFAxnDsKE7NLS0oC88uQg7MtsJLoZonCSYMjy4xLi8+MS4kEQhCqnw9nS3tGW4Xa7C6Nxxo5EEJHMJvPRpJSULpPJmM+QFQGALHnfwg0iIhB/GwD8IWxjhmsgAIANGzZoReDaEDGqaxOdiyCKDW7XYE13d5exr79/oigKEZUrOtLheL43IS7+RILNJuj1+iJEVCQfuCoQfHpz6Q1hK9sTVjGv3/ja1QzgP+EcM5wQgFfw+485HM6+3r4u24DTNV4URVVzRkcaiMwVZ7WeiIuPd5jN5mTG2AQcxRExSNyYcN05h3WZjQCl4Rwv3CCAluf5qQkJ8ZCQEA8A4Bb8/qMDAwN9fX39JoezP9/v9yeqbWe4QETQavhmsyWu3mK1ek1GYxLjuCIEuGh8w0Xw3QAAfwzHWGH7Rjxzis21IeJF8zJfCCJq9ni9DYODA26nc8Dgcg5keLyeKDjZHwkUdXp9ndlkajObzR6DwWDSaDR5o2rZHAoE224uvSHoAu6hEEYxvzaXEC7qfF1DIRI5dRrNpxaLxe3o7+f6+x2GPmdvgqPfmeh2e5KJ5E2gHyqMMcFoMLRZrZYuk8nUazKZB3R6g+hxezIEUZiAiKPOLVYGRL9Xm3T77Vcr7mEYtmW2iPR1jLzMvhEBQzQn2BIw0Wa7MjX1fI9LEkSBOkUSur0+34DP4/UMDA4KHo+H3B4P8wy6eY/XrfF5fVqfz6vx+gSdKPg0ggicSKJGFERGAAwRCAiIcUzkGPoZop/xWo9Gw/m0PO/TaHVenVbn0xl0fr1eLxp0BtTrtbxOq9NptDozxzEbACR9luzuCwnvmpqa9vc7nDEhXxjGab2XA8BGpQcKm5iR8KqYlodGp9MNcb+FHOMwlQFL5XkNgMEIcfGRdRmg1esGwHHR5lMcEQT4GoRBzGFxqXzhhbeSgs28ebGh1WiidmbT63TDJkSIQUvCMUpYxKzR+BaGY5xohuP4yJpug4DXaGLXb8OCeRs2bJCliN1whEXMhCh7LeHRBmMsU20bQkXDaVQLOYweWMgF7AMeQekBAAAIKDYzDwPHuC5EMKttR6jwPBdVftNqIAIqrgHFxfzGG29YEDC2Xx4GvUHborYNEklhjA2qbUQkg4CK5wZTXMxerzg9HONEMzq9oV9tG6Si1Wia1bYhkiGEkrfeekvR5BDhEFnYHM2jFaPBEPXJBQ0GQ5faNkQyCMC5vF5FV6iKi1nEmJhHQqfVRnyw/UgY9LrYMnsEmMiiW8wAFBPzCPA8F/X+6lqdXpUUVNGECDRZyf4VFfNbb71lBIJY/d9hIAJCZFGfuUSj0URM0fFIBQEnKdm/omJ2+XyFozlWVQ50ek39aAhQYBwbBZFfCoM0iYgU04OiYkYRozLlSzgxGkxtatsgBwwxgeO4TrXtiGzQtH79m4qVY1J4z0wxMY+A0WgYNQdHRoOxUW0bIh2eF5UrXKdUxwAABDheyf5HAwadLmrzcp+P0RT99+VKQ6jcGZKyy2yiPCX7Hw3wWu2ocYU06vUx56ARIIICpfpW9sNHiPpTWmVBDwLkqW2FXGi1WpvaNkQ8CmpCMTFv2LCBI8CMkZ+8eDEadDWIOGpmM2RsDACIatsR2ZBioZBKvkhpCMAp2H/UYzSbR9XpLyLqdTpdndp2RDYYfWL2ozZ27zgCZqNp1JXCMBuNrWrbEOGkKXXXrJiYGV48+aFDRavVjLo0tCaTOeqDRpQEAbRvvPFGnBJ9KyZmJBY7DBkGRPRxHDdWbTvkRm/QR236o3DhdpMiRe8V3DNTTMzDYDDoqgFg1OXO4jgshNgh2LBwHESbmCEm5mGwWCztatugDGjQG/TValsRyQgIiqxeFBMzgTIGjxZMBrMiszIRiUQ04swYyDPnI4qiJ5DnLGbzqPA3VwqmkDaUnJljpU2HQafXBOQ8QEQBHygREbW1tW8N8O5a6OzsCrhckGvAddzpHDgayLMmk2nU3J0rARElKNGvcgdggFGfPUMpOI2mHQADvLoj1tzcUh7Ik3X1jVt5LR+QrzciagZcLn93T8/ukZ4ddA2ebGhqJIvFHFCmDINep3iO6OiGKTLRxWZmFbBazAHvKREZJ4gC1DXUVwz3XHNTc/ngoCsnMcEWcBbIlOSUvNbWthLXgOv4UM94vZ7G2vr6BFuirSfw2HTM4nk+ttQeAkRRkawsyomZKDYzD0Gc2ewP5vm01JSigYHB+U1NzRecoTu7unb2ORyLk5OSmoJxDzUYdDk6reZIfWNDks/n+1K6X0EQ+k7X1PoRwZFkS5wbjM1xFsvpYJ6/mEDCKBMzYMyVcwh0Ol1QPusajTZNr9Xt6nc4Fre2tm0593cDroET7e0d0wigJjHRFpTgAADS09OsRJBcfbrWIYrkOvtzIvKfqqmpJYK8lOTUtmB9yC1WS6z+1BCIChVsVPKeOXbXeAE4nu9iHBd0GFxWVnoWAQjdPT0Lurt7dgIA+H2+7vr6pjhE1KWlpbaHkqLJaDSN12r43UTiuNO1NYeJzniY1jbU7xD9whQEPJGQEDcn2H51el1esG0uIhSZ6JS7mkKMifkCxFssVaG002p1OXq9bgciYmt7+3THgPNQTW1dHQClc4wdtcXHzw7VpszMzGQCEHxe3+zm5qbyjs7ObW6XeyEAQEZGhieUNG4MWZZGo20K1aZRDVJQ26xAUdCdk0ZdEIEcWK1xIX/J5WRljQeAAQTQNtQ3FvsFYRoAQEaGtEhTvV6fbzTotwMA9DsGFnd2dl0CAMDz/F6r1Twl1H7j4i01kgwbrRAq4r+u5Gl2bM90AXQ6bcj+2DzPJ8VZLPsAABDPHKJoNdodZrNpolS7srKyJgFAz2f/1BCAkJOdKSlYJs5iHXXuqnKAGLjvQDAoJ2bEUZOoTi70Bv1JZCgpTVB6RvpcAKwDACAiT1ZWlix3ujzHxSfabJ87hRgN+u06nT5fSp8ajaYYEWNf6ueB0TYzE9CAUn1HK/HxcZKLqyGiJjMjvQsAwGI27tLpNLLVdU5OTlrAEI4RQF9WZlaJ1P4Q0WIymo7IYdtoQlRIGwreM2NMzOdhsVhkifG2Wi3TjUZjRXp6xnQ5+jsLIkJObo7GlhB/kOc5WVwO4xLi++ToZzSBiIpkMVWsPhAiDQDEilmchTGuh0MmeW97ltyc7EVy9XUuBr2h0KA3yJbb2WIy5srV12gBiRQRs4Kn2cp8+0QrtsSEoxdjqR5EzNXrdLGQyHMQGTmU6FcxMYtAoypZnVQS4qwXrXurzWaLVbo4B5GoV4l+ldszMxYT82cwhg6e14R8XxvtmM3mNLVtiCh8WkWCUBS8mhI7FOs7ykhISDgMozBFUKBwHCvS6bS1atsRIYg871FkolPuasqLMTF/hi0+PupLtkolKTEplk8bAIigs7S0VJG7d8XEbDLxXwqpuxjhOdbNa/ipatuhNhazKU9tGyICJMXivBUT8zXXXOOC2CEY2BITj8bCQQGQsVyjUX9CbTvUBglqlepb2VxNhPWK9h8FxMfHx4oBfEZKcvJFv/UiQMWCT5Qutn5Ri1lv0J/kGCtW245IwWAwTAHAgDJ8jl4oOsVMCCeV7D/SSUlJjp0bfAG02hIS9qlthZoQRunMzIhVKtl/JMMY85oMxskX+p3T6Qwq+CAyQsODs6HP4ThwoZ8nJSWYZDEnSuGIKTbBKb3MvmjFHJ8QvxeGSHY+6Hb39fX37Q2kHyKijs7OgPNbK0V7W+e2QBPnd/f07Pa43a4L/Y7j+CkXsXunr6enLTrFzPMwZArX0U6SLWHI8jyJNtuMpubW9EGPe9iXmoigpq52u1ajVd3hhNdpNDW1tTtGWiV4PO6a9vaOnKTExCGv49LSUiSHgkYlBJV33XWXYlUyFRXzDTfc0EUEF51frsloPMpx/Pihfs8Y01vMllN1tfU6v8/XPdRz9Y2NFV6PNyMuzjpLGUsDJyEubpbX682sb2gcMn+3IPgdp2vqmd6or2KMGYd6zmAwzmAMFQk2iGQIIaCKIKGifBkRhIOKjxFhpKWmjBgxlp6aPEkkSqw+XdMsioL3/N+3tbdvcQ24FtkSk1oiIdgKETEpKanZ5XItam1t+ZKgiUisrqmrIqCs9JT0kVIjGVOTk/crZGrkQqBoooYw1ASiCx6EjFY0Gm2TRqsdMVMmr9HYTCbjHpGopKamft+5y9f+/v5Pu7t75gNgXXKiLeg0t0qRaLPNQYSa7p6+hefv+esa6rcJfv8MvU67U6fTjJhhMC4+bhwAKJKlMlIhhBFLAUlBcTEzUvYPiDQy0tKqA00Yn5meMQmAHF6fd25jU1M5AIDH421obG4pAACWnJLUHEzyeVEUPcGcfBMREAWe9hURWUrqmfzczc0tRe5BTx0AQGtrW8XgmdS8vqzMjICSESCytCRb4q6AjR0FcOQP6NAzVBQXM8fBTqXHiBR4jnUbjPqAaz3xPJcQF2fdDwDgdA4sbm1tq6ipq3UjQBxDdjwxISGoChWIqG1paSkPRNBEBC0treUQZLYZW3z8bMaxIwBoqa2r87e2tm3p6e1dBABgNBl2aLW6AAviASQmJ6ZHwhYiHBDBydLS0iHPR+RAcTHfeOON7URwUdQdSktPP4wYXPXL9LT/y7bZ09u7iEQqBADIyMjwBfuiIyIyxrHa+rotIz1bV1+/hTHGQhFTVmYGAwAgoIKe3t6Fn43enhlkTjKGOCbear04Vm4Ie5QeIjx1dBG2hWUcFWGM6zGbTEGfOiOiJiMjrefcn2k1mp0Wi+mCDicjkZKSPNM96Cmpa2gY8tS5obGpwjXonpySkjwjlDFMRlOxTqv7wt13akpyDc/z5qDtTU22XRSzM9GwVTzlICxiZoQfh2McNcnKSDuEiENexwxHnNU6VafXbwMAIIDBnJzskJPgMcYMcVbrIdeAa9H5ReYAANo7Orc6nc5FFovpwHDXRyORlZUxlkh0AZz58rHZEkIqj8MYNzYhPm7Ub8VIwE+UHiM8YmaC4n+ImnA832UymwLeK1+InKzMKQDQHG+17tZoNOlS+joz41Jvd0/Pgt7e/s+Xd339/Qc6u7rmEomu9NT0kGb+s2i12pT4uPg9ANiSl5c7QUpfSckpqURB+otGFdR8yy3XKx6nEBYx33TTTXUANGpd+LIz048BoKTi8jzPm3Nyc5xpaSlBl2W9UF9xcdZDiIjNLU0TB13uao/H29DU3JKPAJzZYtkjR17s9PS0eXk52U6O4+Kk9MMxzE9Otqnusqoc+AkiKv5lFZ49MwAQ4X/DNVY40Wp1dQaDYZ4cfZkMhnGMcVo5+kpLTbsEEVsRmbG2vk5bU1vrRYA4IurJTEsLaa98PoioMRjlybGdlJhUiIgX9OceBWwKxyBhEzMDejtcY4WT7Kys9kjMJMIY0yenJJ29RcgmogIAgMRE2xEuhIMqpUHElIz0dMVPfFVA9Hv5d8IxUNjEPDDQv5mIRtU3r8Vq+VSr5VX3mx4KW3zCPIb4uQshY1iZkpw8X02bhsNqNV/C87xiObJUgWjb7bdfE5b0WWET85133ukGxPfDNZ7SIKIvMz1tyMioSAARIScnS/+Zl5eYlZUlBONRFn7QkJOdNbp8EhDeCtdQ4f2PJdoQ1vEUJDUtbTsiy1PbjpEwGIxjbYm2HQm2hG0mozHiUxjpdLq5FrNl1PjzI/FvhGssxQrHXQgGwtsi8IMIIOnkV220Wr4x3moJ6V5VDdJSUhaqbUMwZGamJ5yodHoAKKrzjRPQ7ptLrz0VrvHCOjOXlpY6ESDqD8JycnI7gnXbjBE4iJiblZUR9Y4kjPDFsI4XzsEAAESAZ8M9ppwkJyZu1fD8NLXtGO1YzKYFRr0xmtNOiQD+l8M5YNjFnJaU8F8CaA33uHKg0WhaEpMSL9oCcOEFueycDI4x9qXEDVEBwabS0tKwvudhF/OSJUv8QPBMuMeVCiJCbk5uGyJa1LblYoExbmx6RnQutxHon+EeU5VrCgbcE2qMK4W01OQKjYa76GtGhRuLybgw2k63CaApOdn2n3CPq4qYS0uvPQUE76oxdigYjMbj8fHBJQqIIQ+IiJmZ6Rk8xxQN7JcTRvD4kiVLwp4SSTUHAgT6q1pjBwNjrD8vJ8sCF3F95QGnS9GskiOBiCn5+Xm10RBZRUR+v5+psvJUTcxHjx76gCI8ST4iQn5efiUABpwKJxB6e/uC8kHu7u5RNVeWx+919vYFZzORKGsNYp7XTM/KzlQ8wF8qiPjcbbddp0pecNXEXFZWJjJiv1Vr/EDISE8vV8L32u12u7u7ewM62Olo79jq83pVPdFNiIu7pLW1LW7QNXzS/rO0tbZtAZA/fYjVbF4cZ42L2GAMIiLRD39Qa3xV/XR7etpfIICIrBSZEB+3y2q1LFai7+TkxKmt7a3jBlwDw9Yr7nc49nd2d09MTEoOKreW3CAi2my29tr6Op3fL/QM92xzS0uFVxBEpXzA09NTiyO2vA3iG7feeoNqVVxUFfNdd93lQ6Dfq2nDhTAajcdSU1MVu0/mON5iNBqO1tc32Xw+7wXvIt1ub11TU3OByWg8xPNM9WJryUmJcwgAT5+uqRuq5lRXZ9f2vr7+uanJSZIyjwwHIppyc3MNGg0fcbWeGYGqK03VI2gsJsMTkTQ7a/Xa+pyszDSlTHWp0gAADjtJREFU3TUz09LHEVB8dU2tw+/3O8/9neD3O2vraogANBkZaSVK2hEoiMgnJyXWCqIwta6xYev5v+/vdx5s7+ycpdXpd2u12hQlbWEMM8bk53cxFjnJDAjg9dLSG1TNNKq6mK+66ioPAjyoth0AAJxG056fm8uQMcVDGzVabarRqN9FIhVW19RUi6LoATiTz/p0bd0JIsgzG027eV6TqLQtgZKUmDgXAOsGBwYXdXV2f55x1eNx1zY1N+UDgCYjNTUtHLYwxsYXjBlTiYiKFWILApH8sEJtI1QXMwAAkv95IGWLao0EY1zP2DH5ToZM1pPr4cjKyCgGgAFREKdUn645Ioqip7G5qdzv988EoN7MzPSgnFREUXSJoqjY9Q0istTPCsi3dXbMGnAOHBMEoa+mto4BgFWj1ewyGPUFSo1/PjzPTxuTn78fEWU9OQ+Bp9TcK58lIsRcWloqEBN/odb4jHE9hYVjOhnimHCOy/OaxDiLZR8AgN/vn1FVdarR6RhYDABgi7cdCjZRHiJqm5qbtgRS0UIUxUGv1xP09sZmS5jDGHcMAbQNTY3Jp06friWCHCKijIyM5GD7k4pWq7kkPz9vDwAEVDtabojIxTMqU2Ps84kIMQMA3HLTTe8D0ZvhHpfj+a7CsfldDJksiemCJT3j/ypaEJzJ04WI1SmpSUGn90FEniEPtXV1W4cTtN/vd56qrj7OGBfSdiIjLU0AACCCZFEQpwAAGAz6bUa9PqxfhmfRabVzCsbk7wEVCtEhwuobb7wxIsoWR4yYAQAQ+HuJyBOu8TQabdPYMfkDjHEjlSBVDETUZGSmf+G6Jz0j3YHIQkoSmJaWMnXQ7Zk6VB1lv18cqD59ul6r0TlDqUABAGCxmidpNfy5hz392VmZip1gB4JWq51dWDDmIGNsMHyj0nEk4ZHwjTc8ESXm0tJraxjgmnCMZdQbK8cW5GsYYznhGG844iyWqXq9bisAgFar3RFnsYQc0MFxnNVqNn/qcrkWNTU1l5/7O1EUPdU11acEkYoyMlIlzaLZ2VkZAOAGAEi02Q5FwkEdr9HMKCwYc5rjuWHvwuVCBHZ3aWlpxIRoRpSYAQB6ejp+TwrXdI6zxu3JzcvOBgBFr1CCITsrZxoCVuXkZEteJaSnp04DgJ5+h2Nxe3vHVoAzp+Q1tbUHREGcYtDrgqrWeCG0Wl1WWlraEZ1Otz05OWmBVJvlgnHcxLFjCpw6nbZWyXEI6Olbl12/WckxgiUiK3a9uHHjNAbcHgSQNR81IkJGelq51WpVxLNLKqIouhljstxvt7a2VXxWalXMSE/b3+/oH3A6XYsIwDs2P79Tq9OOWBA9uqH+5ua2qr7+vpmy9wxQz8g/ubS0tE/uvqUQkWIGAHhpw2t2RPi1XP1xPNeTl5tbrdVoZP/PjUSIyFdZVdVCBDkE8HkSRZPRWJ6Tkx2RX2ZyQ0TkcDgrGpuaFyHK964TiktvuemmiKufFnHL7LOkJiesI6AveRqFAsfxuwoLClwXi5ABzhyspaaktQEAnBUyInRkZGTIUpomGkBEtFoti/PzczbIlaqKCB6JRCEDRLCYlyxZ4mck3E5EvRK6EYlgTWKCZQGCeB0RHJTNwCggISFuFse4/Wf/nZiUWMXzXMSVplESAvijyaD/luDlJxHA6xI72zs40LdcJtNkJ2KX2WfZsOHVawgx6PtnAqoEBt++5cYbPw813Lt3r0ar1d8PiA9CmHOGq8Wg211TU1uXwzN2dNy4QkllXKOMHhHEO6ZOmvR5+h4iwo0bX71VBPwLIgZ1+k5EXTyjGWcqmkYmES9mgOD2z2fuqfE3gwN9v7vzzjvdF3rmyJEjU0WCZwFwkqyGRih1DQ0VKckpWQa9ThWnjqAhgQr8K7fpxeqxAOB34YSaes0vpghotQbUnGA7x+jWkpKSC3q4bdiwIZmQfxgAvhVYf0SE+NVbl93wQeB/RPiJCjHb7XZWPHHya4B47bAPEr3KMfrlTTfdNGK9oqqqKp3b7V1NAPchBhpIT5Dsf2N7ov8/Rg4HzV5Ib6/l7y/wcSmpgbVXByKCgP/ECCDd99TWJPGdL1x3icA1ntQ+ynkxZchC9ERECPAbr9f965kzZ44YgPHSK6/MR5H9CRBGOEuh+25eduPDgdqvFlHzP/zGG29YPF5xMyB8KVCfADaJwFbdtuy6oNPrHDp0bDEBPYsIIziPiFDo+d/teqib98Wfak8d1T5fAMhFzWcZ6Ux031zH0J97/s8F0p48rns6l1B3gRrWVEMifnvKlIlBpRay2+2suGTKTQS0GgGLvtQr0KO3LLvxJ8H0qRZR9QJu2LAhjZDbAYB5AABA9B8R2W9vXXb9din97t1bHafRDT6KgN8Y6pkc/yPlccLWC17p1PK/POjgZseS4weBTXh/T7y41d3LFuu7uaWzzp7Faqi7a7z3+0PuZ/tgVkW97v5FZ/9NZ5Ydf+OQHigpKXEO1W4kNmzYwBHyNwLBfZ/P1ESvpiTbblEj02YoRJWYAQDWr39tHHJwD8/Ev990003Dpt0JlkOHji4jgH8gwhcCELRiU0OR7ydpAHjBDJ293OLyBv6nnwvdIFSdTBLea/awFK6DXzaHgL8oDtsCJcn/9s504d9zzv7bh3H7qzR/HSeiyWQWDx3N95VNHLIxgadS91iPF1PTiGCPyOjH00pKZEsKcOaQ7PU5AkLiiSMH3y0rK1MlGisUok7MSnPs2LF0n58eR4Srz/6s0PPzLy2vz2UACree1v12AQBApu+vFTZh80L4zEnBjZk7T2r/PCf2UZ8ByeMt8X7DASB+Yfb1g/ngCd2TE+P82w9mC38e9i7cxca8f0r7+2cmT5z4MiJGjdiUJmLvmdWiuLi4ZfKk4msI6dsA0KsRW1v0UDds+VYeerQAABm+f1TYxM2L4BxvIz01zbEKu6KqIoNUdGJDfYH3ga1jvMu3msWDx879Xby4/dD5QgYA4ME5ZYzvwe0cOEY8uDIK1ZdM7rhnY0zIXyQm5guAiDSlpOQZnsPiXP8ftsIIPuI8DJhs/v/uShQ2XbAOcqp//RfC8hg5Hdm+P1WM89y9O9n/+g4ZTVcdRk7HWO/POSNVLTBR5YJ83+riDN8/tpz9fTxtHxiqrVGsXJQibhy5djdiAljaLhpvvkCJiXkYiouLWwxUM2KcLgeDBZn+x6fBEP6/emj6PJWOlhobJ3ju7I8XtyzSQdslacLzc23Cu6omgpOTPOHh/QzFzHN/lihuWpjsf307wP9v715io6riOI5//6dDnyKwqIggpIQybWhNsGNjcCOJK6KuFIyJLkiMCxKNURfGx4KYGDduCGII0Q0JJsbEjYmERQWqidAGqFhmyiOVCgkVEdoqbWfm/lx0bAPzLFzaznA+yWzuuXfOmcz8Z86ce875w6L0UH2h6yMaLXEgUZ132sZK5YO5AHVHFyPLPxgzoxazHLdLpp/poYj+vlrF2Ejz5NvB7R/2Fckvm4zkQtiY7q4YqXRD+nTOtdgPp/c/Xh8MnFvEjaWhVCaybiPd73wwF1Ktlny/trPVoDND6ybfPeNIZd3PdqbGJekjZT9vvDYYOA/KN0urtin5YY1jYmWe8tkxWzBr0RcKH8yFuPB26lyV3LW4WsN5B9KWqDfvf8lyUafBgotiHKlHwQp2s2ehQE/o/uSDuRALQssk4ZgsuINItf4MdSOG+VBlE3M5ueKOJ4hUKh/MBbk5y5gQBEHZvxdpNYSZ9nZP4WINhVhXRSj7D9A9JZ0tcsIJpFA2j5Orm++N3O/aOKtKWtVUEgUHEV/lP8GO5i+7P/lgLqQj8RviUp7SG5B+ESOUrYGTaiz7CRDjVWtXo5A2o3dMUOfeAJ3IKpP6GV1+MJR6KogP5gLMCLBcWSqVBLZa7Nx5FE4wj7vVYXZR50VAzRVcpIQ0LfqleNDbVWvrH2Oy6hnQ9zOXchnZNtt8uCwWP8wlH8zFXEjsBn03c0BXgOcsFp9aqG5cK3i9GCylmpR78GfQEak8BnYkCfQr0j6k7emUa3qsva2JIHmg+MX0AZ8VKBdKngWwTf3XLJZ4loB2gmALdS5qnfHTob2QCuJn/5dAPR2L0NhTyEVIjf5km/6Ynp6p49GvMduW58oh4D2w/UWqOE9HvNkMSXJ9ffFmuVSbk7WBtclYb7AOCOu2zqxIXMOUsKnkfqckO1Vd7U62traOZp17onklaTcIln+lmNjL2M03eaCuGyPXoopui8VzTo318vNL80pgsd4k8GPuUncIlCOYlQK9jFxd8a9M7TFDAJnFA4nM49vpMyQ7eXLgkUhkck2aqtVOwRpgBbBc2HJgmZmWAsvAGijy3koKzGxEYsRMI8iGQcMyhh02JHFRsovJGncu1tJytdgr+J9tPHtJPdEDwCv5T9J12/z7uHqjzyO6wNbf2jh2llqfN8MH892y+gPwz/tA0/QxESC33TrPdOtY60asUFZG/cU4e4tWYybgUuZRdDOGrq6uSGNjYy1Q7Zyzf50zgAZpIp1OT2xo25DMPGf4qviINC+Q2eI3m011oTsSl9XX/iQTk5+CvYoxigVvWWzg0D1pV4Xz3ewQ6Fg0irNvgHZED+Id64wfhsz87hq7juUdn9hhsfjnc9fauaHj0dcx+yK7ABHRWtuYGLzlcE9HPbU3U9bWv2ByN5UbH8whkXD0rl1ssQtZKUvU03IUyM7HJA4Si28xm5/cwveajkc/wG5PBKh9Fku8Nj8tqmx+NDskZgS5AjkjR2ZLHSad2lqpgQxgTyQ+JuBpxA9AAmkntVU75rtdlcr/Ms8RHWt5CeMTpoJ3FzTszgyseZ5XbiRM8l+gnud5nud5nud5nud5nud5s/YfXfFmAB5yHpUAAAAASUVORK5CYII=;container=0;" parent="GlH7Y8rs6A_fCsLxcxdf-113" vertex="1">
          <mxGeometry x="134.99" y="90" width="42.02" height="46" as="geometry" />
        </mxCell>
        <mxCell id="P0AFOmnKXR1hHFCW5aUR-48" value="cAdvisor" style="text;html=1;strokeColor=none;fillColor=none;align=center;verticalAlign=middle;whiteSpace=wrap;rounded=0;container=0;" parent="GlH7Y8rs6A_fCsLxcxdf-113" vertex="1">
          <mxGeometry x="126" y="143" width="60" height="20" as="geometry" />
        </mxCell>
        <mxCell id="P0AFOmnKXR1hHFCW5aUR-69" value="" style="aspect=fixed;sketch=0;html=1;dashed=0;whitespace=wrap;fillColor=#2875E2;strokeColor=#ffffff;points=[[0.005,0.63,0],[0.1,0.2,0],[0.9,0.2,0],[0.5,0,0],[0.995,0.63,0],[0.72,0.99,0],[0.5,1,0],[0.28,0.99,0]];shape=mxgraph.kubernetes.icon2;kubernetesLabel=1;prIcon=deploy;container=0;" parent="GlH7Y8rs6A_fCsLxcxdf-113" vertex="1">
          <mxGeometry x="22" y="23.07000000000005" width="50" height="48" as="geometry" />
        </mxCell>
        <mxCell id="GlH7Y8rs6A_fCsLxcxdf-72" style="edgeStyle=orthogonalEdgeStyle;rounded=0;orthogonalLoop=1;jettySize=auto;html=1;exitX=1;exitY=0.5;exitDx=0;exitDy=0;entryX=0;entryY=0.5;entryDx=0;entryDy=0;" parent="GlH7Y8rs6A_fCsLxcxdf-113" source="P0AFOmnKXR1hHFCW5aUR-38" target="P0AFOmnKXR1hHFCW5aUR-46" edge="1">
          <mxGeometry relative="1" as="geometry" />
        </mxCell>
        <mxCell id="P0AFOmnKXR1hHFCW5aUR-38" value="" style="shape=image;aspect=fixed;image=data:image/svg+xml,PHN2ZyBoZWlnaHQ9IjI1NyIgcHJlc2VydmVBc3BlY3RSYXRpbz0ieE1pZFlNaWQiIHZpZXdCb3g9IjAgMCAyNTYgMjU3IiB3aWR0aD0iMjU2IiB4bWxucz0iaHR0cDovL3d3dy53My5vcmcvMjAwMC9zdmciPjxwYXRoIGQ9Im0xMjguMDAxMTI5LjY2N2MtNzAuNjkwMDg5OCAwLTEyOC4wMDExMjkgNTcuMzA0MjYyNy0xMjguMDAxMTI5IDEyNy45OTY2MTIgMCA3MC42OTAwOSA1Ny4zMTEwMzkyIDEyNy45OTg4NyAxMjguMDAxMTI5IDEyNy45OTg4NyA3MC42OTAwOTEgMCAxMjcuOTk4ODcxLTU3LjMwODc4IDEyNy45OTg4NzEtMTI3Ljk5ODg3IDAtNzAuNjkyMzQ5My01Ny4zMTEwMzktMTI3Ljk5NjYxMi0xMjcuOTk4ODcxLTEyNy45OTY2MTJ6bTAgMjM5LjU2MDIzNGMtMjAuMTEyNjIzIDAtMzYuNDE5MTE4NS0xMy40MzU1MjItMzYuNDE5MTE4NS0zMC4wMDQwNDFoNzIuODM4MjM3NWMwIDE2LjU2NjI2LTE2LjMwNjQ5NSAzMC4wMDQwNDEtMzYuNDE5MTE5IDMwLjAwNDA0MXptNjAuMTUyNjQ4LTM5Ljk0MDYzNWgtMTIwLjMxMjA3MTZ2LTIxLjgxNTc4MmgxMjAuMzE0MzMwNnYyMS44MTU3ODJ6bS0uNDMxNDM3LTMzLjA0NDQyN2gtMTE5LjUzNzI5MjRjLS4zOTc1NTQxLS40NTg1NDItLjgwNDE0MzUtLjkxMDMwOC0xLjE4ODE0NDctMS4zNzU2MjctMTIuMzE1MTQyMS0xNC45NTM0NTYtMTUuMjE1NDgtMjIuNzU5OTczLTE4LjAzMjI0MTItMzAuNzE1NTczLS4wNDc0MzU1LS4yNjIwMjQgMTQuOTMzMTI2MiAzLjA2MDcxNSAyNS41NTY0MDQ1IDUuNDUwNTU3IDAgMCA1LjQ2NjM2OTEgMS4yNjQ5NDUgMTMuNDU4MTEwMiAyLjcyMTg5MS03LjY3MzI0NjEtOC45OTQ2NjItMTIuMjI5MzA2NS0yMC40Mjg4NjEtMTIuMjI5MzA2NS0zMi4xMTYwNDggMC0yNS42NTgwNTE4IDE5LjY3ODkyODQtNDguMDc5MjAwMSAxMi41Nzk0MjUyLTY2LjIwMTc5NDUgNi45MDk3NjE1LjU2MjQ0ODcgMTQuMzAwNjUzOSAxNC41ODMwMDc2IDE0Ljc5OTg1NDkgMzYuNTA0OTU0NCA3LjM0NTcxNi0xMC4xNTExODI4IDEwLjQxOTk4NC0yOC42ODk0MDIgMTAuNDE5OTg0LTQwLjA1NTgzNTUgMC0xMS43Njg1MDUyIDcuNzU0NTY0LTI1LjQzODk0NTQgMTUuNTExMzg3LTI1LjkwNjUyMzItNi45MTQyNzkgMTEuMzk1Nzk4MiAxLjc5MTI1MiAyMS4xNjUyMzg3IDkuNTMwMDA0IDQ1LjQwMDIyNzYgMi45MDI1OTcgOS4xMDMwODU2IDIuNTMyMTQ5IDI0LjQyMjQ3MTkgNC43NzI5MDggMzQuMTM3NzAwNC43NDMxNTYtMjAuMTc4MTI5OSA0LjIxMjcxOS00OS42MTk3MjI0IDE3LjAxMzUwOS01OS43ODQ0NTgyLTUuNjQ3MDc1IDEyLjgwMDc5MDYuODM1NzY3IDI4LjgxODE1NTQgNS4yNjk4NTEgMzYuNTE4NTA3NSA3LjE1MzcxNSAxMi40MjM1NjU5IDExLjQ5MDY2OSAyMS44MzYxMTEyIDExLjQ5MDY2OSAzOS42Mzc5NTE1IDAgMTEuOTM1NjU5LTQuNDA2OTc3IDIzLjE3MzMzOS0xMS44NDA3ODggMzEuOTU3OTMgOC40NTI1NDMtMS41ODU2OTkgMTQuMjg5MzYtMy4wMTU1MzkgMTQuMjg5MzYtMy4wMTU1MzlsMjcuNDQ5MzA0LTUuMzU1Njg2Yy4wMDIyNTktLjAwMjI1OS0zLjk4NjgzNSAxNi40MDEzNjYtMTkuMzEyOTk4IDMyLjE5NzM2NXoiIGZpbGw9IiNkYTRlMzEiLz48L3N2Zz4=;container=0;" parent="GlH7Y8rs6A_fCsLxcxdf-113" vertex="1">
          <mxGeometry x="27.079999999999956" y="93" width="39.85" height="40" as="geometry" />
        </mxCell>
        <mxCell id="P0AFOmnKXR1hHFCW5aUR-43" value="Prometheus" style="text;html=1;strokeColor=none;fillColor=none;align=center;verticalAlign=middle;whiteSpace=wrap;rounded=0;container=0;" parent="GlH7Y8rs6A_fCsLxcxdf-113" vertex="1">
          <mxGeometry x="4.499999999999972" y="146.46000000000004" width="85" height="13.07" as="geometry" />
        </mxCell>
        <mxCell id="GlH7Y8rs6A_fCsLxcxdf-58" value="&lt;b&gt;Monitoring&lt;/b&gt;" style="text;html=1;strokeColor=none;fillColor=none;align=center;verticalAlign=middle;whiteSpace=wrap;rounded=0;container=0;" parent="GlH7Y8rs6A_fCsLxcxdf-113" vertex="1">
          <mxGeometry width="78.26" height="20" as="geometry" />
        </mxCell>
        <mxCell id="GlH7Y8rs6A_fCsLxcxdf-110" value="" style="group" parent="1" vertex="1" connectable="0">
          <mxGeometry x="142.5" y="200" width="120" height="220" as="geometry" />
        </mxCell>
        <mxCell id="GlH7Y8rs6A_fCsLxcxdf-76" value="" style="rounded=0;whiteSpace=wrap;html=1;opacity=50;strokeWidth=3;strokeColor=#CC0066;" parent="GlH7Y8rs6A_fCsLxcxdf-110" vertex="1">
          <mxGeometry width="120" height="220" as="geometry" />
        </mxCell>
        <mxCell id="GlH7Y8rs6A_fCsLxcxdf-17" value="&lt;b&gt;Event streaming&lt;/b&gt;" style="text;html=1;strokeColor=none;fillColor=none;align=center;verticalAlign=middle;whiteSpace=wrap;rounded=0;container=0;" parent="GlH7Y8rs6A_fCsLxcxdf-110" vertex="1">
          <mxGeometry x="11" y="0.5" width="100" height="20" as="geometry" />
        </mxCell>
        <mxCell id="P0AFOmnKXR1hHFCW5aUR-9" value="" style="shape=image;aspect=fixed;image=data:image/svg+xml,PD94bWwgdmVyc2lvbj0iMS4wIiBlbmNvZGluZz0iVVRGLTgiPz4KPCEtLSBVcGxvYWRlZCB0bzogU1ZHIFJlcG8sIHd3dy5zdmdyZXBvLmNvbSwgR2VuZXJhdG9yOiBTVkcgUmVwbyBNaXhlciBUb29scyAtLT4KPHN2ZyB3aWR0aD0iODAwcHgiIGhlaWdodD0iODAwcHgiIHZpZXdCb3g9IjAgLTEzOSA1MTIgNTEyIiB2ZXJzaW9uPSIxLjEiIHhtbG5zPSJodHRwOi8vd3d3LnczLm9yZy8yMDAwL3N2ZyIgeG1sbnM6eGxpbms9Imh0dHA6Ly93d3cudzMub3JnLzE5OTkveGxpbmsiIHByZXNlcnZlQXNwZWN0UmF0aW89InhNaWRZTWlkIj4KCQk8ZyBmaWxsPSIjMUExOTE5Ij4KCQkJCTxwYXRoIGQ9Ik00OS43NjM0ODEzLDIwLjk3OTU5MDUgQzQ3LjE4MDkwNTMsMTguMzg2OTg1MSA0My41OTc4OTQ1LDE2Ljc4OTc5OTggMzkuNjAzNjc3NSwxNi43ODk3OTk4IEMzNS42MTk0ODk5LDE2Ljc4OTc5OTggMzIuMDY0MDYsMTguMzg2OTg1MSAyOS41MTQwNzk2LDIwLjk3OTU5MDUgTDI5LjQ0ODg4ODQsMjAuOTc5NTkwNSBDMjYuODczODM0NSwyMy41NTQ2NDQ1IDI1LjI3NjY0OTEsMjcuMTQ3Njg0NyAyNS4yNzY2NDkxLDMxLjExNjgyODIgQzI1LjI3NjY0OTEsMzUuMTA4NTM3OCAyNi44NzM4MzQ1LDM4LjY3OTAxMTggMjkuNDQ4ODg4NCw0MS4yMjg5OTIyIEwyOS41MTQwNzk2LDQxLjI5OTE5ODIgQzMyLjA2NDA2LDQzLjg2OTIzNzQgMzUuNjE5NDg5OSw0NS40NDM4NTY1IDM5LjYwMzY3NzUsNDUuNDQzODU2NSBDNDMuNTk3ODk0NSw0NS40NDM4NTY1IDQ3LjE4MDkwNTMsNDMuODY5MjM3NCA0OS43NjM0ODEzLDQxLjI5OTE5ODIgTDQ5Ljc5MzU2OTUsNDEuMjI4OTkyMiBDNTIuMzc4NjUyOSwzOC42NzkwMTE4IDUzLjk1NTc3OTQsMzUuMTA4NTM3OCA1My45NTU3Nzk0LDMxLjExNjgyODIgQzUzLjk1NTc3OTQsMjcuMTQ3Njg0NyA1Mi4zNzg2NTI5LDIzLjU1NDY0NDUgNDkuNzkzNTY5NSwyMC45Nzk1OTA1IEw0OS43NjM0ODEzLDIwLjk3OTU5MDUgWiBNMzkuNjAzNjc3NSwyMTcuMTA0OTI1IEM0My41OTc4OTQ1LDIxNy4xMDQ5MjUgNDcuMTgwOTA1MywyMTUuNDc3NjUxIDQ5Ljc2MzQ4MTMsMjEyLjkzMjY4NSBMNDkuNzkzNTY5NSwyMTIuODU3NDY1IEM1Mi4zNzg2NTI5LDIxMC4zMTc1MTQgNTMuOTU1Nzc5NCwyMDYuNzI0NDc0IDUzLjk1NTc3OTQsMjAyLjc3NTM4OSBDNTMuOTU1Nzc5NCwxOTguNzgzNjc5IDUyLjM3ODY1MjksMTk1LjIwODE5MSA0OS43OTM1Njk1LDE5Mi42MjA2IEw0OS43NjM0ODEzLDE5Mi42MjA2IEM0Ny4xODA5MDUzLDE5MC4wMDI5MjEgNDMuNTk3ODk0NSwxODguNDIwNzggMzkuNjAzNjc3NSwxODguNDIwNzggQzM1LjYxOTQ4OTksMTg4LjQyMDc4IDMyLjA2NDA2LDE5MC4wMDI5MjEgMjkuNTE0MDc5NiwxOTIuNjIwNiBMMjkuNDQ4ODg4NCwxOTIuNjIwNiBDMjYuODczODM0NSwxOTUuMjA4MTkxIDI1LjI3NjY0OTEsMTk4Ljc4MzY3OSAyNS4yNzY2NDkxLDIwMi43NzUzODkgQzI1LjI3NjY0OTEsMjA2LjcyNDQ3NCAyNi44NzM4MzQ1LDIxMC4zMTc1MTQgMjkuNDQ4ODg4NCwyMTIuODU3NDY1IEwyOS41MTQwNzk2LDIxMi45MzI2ODUgQzMyLjA2NDA2LDIxNS40Nzc2NTEgMzUuNjE5NDg5OSwyMTcuMTA0OTI1IDM5LjYwMzY3NzUsMjE3LjEwNDkyNSBaIE0xMTcuNjY1MTcxLDE3My42OTUwODIgQzEyMS4yMTMwNzksMTcyLjc2MjM0NiAxMjQuNDI1MDAxLDE3MC40ODU2NjcgMTI2LjM4ODI2LDE2Ny4wNDA1NjEgTDEyNi42NTE1MzMsMTY2LjUzNjU4MiBDMTI4LjM5NjY1MiwxNjMuMjc0NTEzIDEyOC43MTUwODYsMTU5LjUwMzQ1MSAxMjcuNzgyMzUsMTU2LjE1NjEzMSBDMTI2Ljg0MjA5MiwxNTIuNTgzMTUgMTI0LjU0MDMzOSwxNDkuNDEzODUzIDEyMS4xMDI3NTUsMTQ3LjQ0MDU2NCBMMTIwLjg5OTY1OSwxNDcuMzA1MTY3IEMxMTcuNTQ5ODMzLDE0NS40NjQ3NjggMTEzLjczODY1MywxNDUuMDYzNTkxIDExMC4yMzMzNywxNDYuMDE4ODk0IEMxMDYuNjcwNDE4LDE0Ni45MDkwMDUgMTAzLjQ2ODUyNSwxNDkuMjgwOTYzIDEwMS41MTc4MDMsMTUyLjY5NTk4MSBDOTkuNTQyMDA2NywxNTYuMDkwOTQgOTkuMTMwODAwNCwxNTkuOTkyMzg1IDEwMC4wNzYwNzMsMTYzLjU4MjkxOCBDMTAxLjA1MTQzNSwxNjcuMTE1NzgxIDEwMy4zMzU2MzUsMTcwLjMwNzY0NSAxMDYuNzUzMTYxLDE3Mi4zMDM1IEwxMDYuNzczMjE5LDE3Mi4zMDM1IEMxMTAuMTk4MjY3LDE3NC4yNzE3NzQgMTE0LjA2OTYyMywxNzQuNjI1MzExIDExNy42NjUxNzEsMTczLjY5NTA4MiBaIE01NC4yOTkyODcxLDEwMi4yNjU1NDMgQzUwLjUzODI1NDEsOTguNTE0NTM5NSA0NS4zNDgwMjg1LDk2LjE2MjY0MDIgMzkuNjAzNjc3NSw5Ni4xNjI2NDAyIEMzMy44NjY4NDg1LDk2LjE2MjY0MDIgMjguNjkxNjY3MSw5OC41MTQ1Mzk1IDI0LjkzODE1NjEsMTAyLjI2NTU0MyBDMjEuMTk3MTgyLDEwNi4wMTE1MzIgMTguODkwNDE1MSwxMTEuMTc5MTkxIDE4Ljg5MDQxNTEsMTE2LjkyMzU0MiBDMTguODkwNDE1MSwxMjIuNjY3ODkzIDIxLjE5NzE4MiwxMjcuODU4MTE5IDI0LjkzODE1NjEsMTMxLjY0NjczMyBDMjguNjkxNjY3MSwxMzUuMzc1MTcgMzMuODY2ODQ4NSwxMzcuNzA0NTAzIDM5LjYwMzY3NzUsMTM3LjcwNDUwMyBDNDUuMzQ4MDI4NSwxMzcuNzA0NTAzIDUwLjUzODI1NDEsMTM1LjM3NTE3IDU0LjI5OTI4NzEsMTMxLjY0NjczMyBDNTguMDUwMjkwNywxMjcuODU4MTE5IDYwLjM1NzA1NzYsMTIyLjY2Nzg5MyA2MC4zNTcwNTc2LDExNi45MjM1NDIgQzYwLjM1NzA1NzYsMTExLjE3OTE5MSA1OC4wNTAyOTA3LDEwNi4wMTE1MzIgNTQuMjk5Mjg3MSwxMDIuMjY1NTQzIFogTTQ2LjAzNTA0MzksNzcuODQ2NDA5NSBDNTQuMzc0NTA3Nyw3OS4yMjA0NDAyIDYxLjg2MTQ3MDgsODMuMjE0NjU3MyA2Ny41ODU3NjMsODguOTc5MDY3MiBMNjcuNjI4Mzg4LDg4Ljk3OTA2NzIgQzY4LjUzODU1OCw4OS44ODY3Mjk4IDY5LjQyMzY1NDQsOTAuODg3MTY0NiA3MC4yNDg1NzQzLDkxLjg4NTA5MiBMODQuNTUzMDM2NSw4My42MTA4MTk0IEM4Mi42Mjk4OTUsNzcuNzk4NzY5NyA4Mi41Mzk2MzAyLDcxLjcyMzQ0NzggODQuMDg2NjY4NCw2Ni4wMjQyMjkxIEM4Ni4xMjUxNDgzLDU4LjM5NDM0NjggOTEuMDcyMTYwNCw1MS41NjQzMTA5IDk4LjQ4ODkxNzUsNDcuMjg0MjU1MyBMOTguNzI5NjIzNiw0Ny4xMzEzMDY3IEMxMDYuMDY2MTQ1LDQyLjk4MTYzMzYgMTE0LjQwMzEwMiw0Mi4xMTY1OTYgMTIxLjkyNzY3NSw0NC4xNTUwNzU5IEMxMjkuNTUwMDM1LDQ2LjE5ODU3MDUgMTM2LjQyNTIwNCw1MS4xNjgxNDg4IDE0MC43MDUyNTksNTguNTcyMzY5IEwxNDAuNzA1MjU5LDU4LjU5NDkzNTIgQzE0NC45NjUyNTYsNjUuOTU5MDM3OSAxNDUuODI3Nzg2LDc0LjQwODgyNTMgMTQzLjc5NjgyOCw4Mi4wMTYxNDE0IEMxNDEuNzY4Mzc4LDg5LjY0MzUxNjMgMTM2LjgwMzgxNCw5Ni41MjExOTIgMTI5LjM5NDU3OSwxMDAuNzc2MTc0IEwxMjcuNDQxMzQ5LDEwMS45Mjk1NTcgTDEyNy4yNDMyNjgsMTAxLjkyOTU1NyBDMTIwLjM5MDY2NiwxMDUuMTkxNjI3IDExMi44NTYwNjQsMTA1LjcwMzEyNyAxMDUuOTM1NzYzLDEwMy44ODAyOCBDMTAwLjI1NDA5NiwxMDIuMzc1ODY3IDk1LjA0MzgxMTIsOTkuMjAxNTU0OSA5MC45NjE4MzY3LDk0LjcwMDg1MiBMNzYuNjc3NDMzNCwxMDIuOTUyNTU4IEM3OC4zMTk3NTEyLDEwNy4yOTUyOTggNzkuMjI3NDEzOCwxMTEuOTc2NTMgNzkuMjI3NDEzOCwxMTYuOTIzNTQyIEM3OS4yMjc0MTM4LDEyMS44NDU0ODEgNzguMzE5NzUxMiwxMjYuNTk0NDEyIDc2LjY3NzQzMzQsMTMwLjk1OTcxNyBMOTAuOTYxODM2NywxMzkuMTg4ODU4IEM5NS4wNDM4MTEyLDEzNC42MTc5NDkgMTAwLjI1NDA5NiwxMzEuNTE2MzUgMTA1LjkzNTc2MywxMzAuMDA2OTIyIEMxMTMuNTYwNjMsMTI3LjkyMzMxIDEyMi4wMTA0MTgsMTI4LjgwODQwNyAxMjkuMzk0NTc5LDEzMy4xMTM1MzYgTDEyOS44Njg0NjksMTMzLjMzNDE4MyBMMTI5Ljg2ODQ2OSwxMzMuMzU2NzQ5IEMxMzcuMDAxODk1LDEzNy42ODE5MzcgMTQxLjc5MDk0NCwxNDQuMzU2NTE3IDE0My43OTY4MjgsMTUxLjg5NjEzNSBDMTQ1LjgyNzc4NiwxNTkuNDU4MzE4IDE0NC45NjUyNTYsMTY3LjkxMzEyIDE0MC43MDUyNTksMTc1LjI5MjI2NyBMMTQwLjQ0NzAwMiwxNzUuODA2Mjc1IEwxNDAuNDE2OTEzLDE3NS43NjM2NSBDMTM2LjEzOTM2NSwxODIuODc3MDE3IDEyOS4zOTQ1NzksMTg3LjY5NjE1NCAxMjEuOTUwMjQxLDE4OS43MzQ2MzQgQzExNC4zMTUzNDQsMTkxLjc0ODA0IDEwNS44NjMwNDksMTkwLjg4ODAxNyA5OC40ODg5MTc1LDE4Ni42NDU1NzIgTDk4LjQ4ODkxNzUsMTg2LjU4NzkwMyBDOTEuMDcyMTYwNCwxODIuMzAwMzI1IDg2LjEyNTE0ODMsMTc1LjQ1NTI0NSA4NC4wODY2Njg0LDE2Ny44NDA0MDcgQzgyLjUzOTYzMDIsMTYyLjE2NjI2MiA4Mi42Mjk4OTUsMTU2LjA5MDk0IDg0LjU1MzAzNjUsMTUwLjI4MTM5OCBMNzAuMjQ4NTc0MywxNDIuMDI3MTg0IEM2OS40MjM2NTQ0LDE0My4wMjUxMTEgNjguNTM4NTU4LDE0My45ODA0MTQgNjcuNjI4Mzg4LDE0NC44ODgwNzYgTDY3LjU4NTc2MywxNDQuOTMzMjA5IEM2MS44NjE0NzA4LDE1MC42Nzc1NiA1NC4zNzQ1MDc3LDE1NC42NjkyNyA0Ni4wMzUwNDM5LDE1NS45OTgxNjggTDQ2LjAzNTA0MzksMTcyLjUyNjY1NCBDNTEuOTc3NDc2LDE3My43Njc3OTUgNTcuMjk4MDg0MSwxNzYuNzM5MDExIDYxLjQ2NTMwODYsMTgwLjkwODc0MyBMNjEuNDg3ODc0OCwxODAuOTUxMzY4IEM2Ny4wNzQyNjI1LDE4Ni41MTI2ODIgNzAuNTM0NDEyOSwxOTQuMjYwNDEgNzAuNTM0NDEyOSwyMDIuNzc1Mzg5IEM3MC41MzQ0MTI5LDIxMS4yNjUyOTQgNjcuMDc0MjYyNSwyMTguOTY3ODkgNjEuNDg3ODc0OCwyMjQuNTU2Nzg1IEw2MS40NjUzMDg2LDIyNC42NDQ1NDIgQzU1LjgzODgwMzMsMjMwLjIzMDkzIDQ4LjEyMTE2MzUsMjMzLjY5MTA4IDM5LjYwMzY3NzUsMjMzLjY5MTA4IEMzMS4xMzEzMjM4LDIzMy42OTEwOCAyMy4zOTM2MjUzLDIzMC4yMzA5MyAxNy43Nzk2NTY3LDIyNC42NDQ1NDIgTDE3Ljc1NzA5MDUsMjI0LjY0NDU0MiBMMTcuNzU3MDkwNSwyMjQuNTU2Nzg1IEMxMi4xNjU2ODgxLDIxOC45Njc4OSA4LjY5ODAxNTY1LDIxMS4yNjUyOTQgOC42OTgwMTU2NSwyMDIuNzc1Mzg5IEM4LjY5ODAxNTY1LDE5NC4yNjA0MSAxMi4xNjU2ODgxLDE4Ni41MTI2ODIgMTcuNzU3MDkwNSwxODAuOTUxMzY4IEwxNy43NTcwOTA1LDE4MC45MDg3NDMgTDE3Ljc3OTY1NjcsMTgwLjkwODc0MyBDMjEuOTQ0MzczOSwxNzYuNzM5MDExIDI3LjI3NTAxMTMsMTczLjc2Nzc5NSAzMy4xOTQ4NzcyLDE3Mi41MjY2NTQgTDMzLjE5NDg3NzIsMTU1Ljk5ODE2OCBDMjQuODU3OTIwOCwxNTQuNjY5MjcgMTcuMzgzNDk0NSwxNTAuNjc3NTYgMTEuNjY5MjMxNywxNDQuOTMzMjA5IEwxMS42MDkwNTUyLDE0NC44ODgwNzYgQzQuNDczMTIxOTEsMTM3LjcyNzA3IDAuMDA1MDE0NzEwNjYsMTI3Ljg1ODExOSAwLjAwNTAxNDcxMDY2LDExNi45MjM1NDIgQzAuMDA1MDE0NzEwNjYsMTA2LjAxMTUzMiA0LjQ3MzEyMTkxLDk2LjE0MjU4MTMgMTEuNjA5MDU1Miw4OC45NzkwNjcyIEwxMS42NjkyMzE3LDg4Ljk3OTA2NzIgQzE3LjM4MzQ5NDUsODMuMjE0NjU3MyAyNC44NTc5MjA4LDc5LjIyMDQ0MDIgMzMuMTk0ODc3Miw3Ny44NDY0MDk1IEwzMy4xOTQ4NzcyLDYxLjM4ODEyOTEgQzI3LjI3NTAxMTMsNjAuMTA0MzYzMiAyMS45NDQzNzM5LDU3LjEzMzE0NzEgMTcuNzc5NjU2Nyw1Mi45ODU5ODE0IEwxNy43NTcwOTA1LDUyLjk4NTk4MTQgTDE3Ljc1NzA5MDUsNTIuOTQwODQ5IEMxMi4xNjU2ODgxLDQ3LjMyOTM4NzcgOC42OTgwMTU2NSwzOS42MzQzMTQyIDguNjk4MDE1NjUsMzEuMTE2ODI4MiBDOC42OTgwMTU2NSwyMi42NDQ0NzQ1IDEyLjE2NTY4ODEsMTQuODgxNzAyNCAxNy43NTcwOTA1LDkuMjkyODA3MzUgTDE3Ljc3OTY1NjcsOS4yNzAyNDExNSBDMjMuMzkzNjI1MywzLjY2MTI4NzI3IDMxLjEzMTMyMzgsMC4yMDM2NDQyNjYgMzkuNjAzNjc3NSwwLjIwMzY0NDI2NiBDNDguMTIxMTYzNSwwLjIwMzY0NDI2NiA1NS44Mzg4MDMzLDMuNjYxMjg3MjcgNjEuNDY1MzA4Niw5LjI3MDI0MTE1IEw2MS40NjUzMDg2LDkuMjkyODA3MzUgTDYxLjQ4Nzg3NDgsOS4yOTI4MDczNSBDNjcuMDc0MjYyNSwxNC44ODE3MDI0IDcwLjUzNDQxMjksMjIuNjQ0NDc0NSA3MC41MzQ0MTI5LDMxLjExNjgyODIgQzcwLjUzNDQxMjksMzkuNjM0MzE0MiA2Ny4wNzQyNjI1LDQ3LjMyOTM4NzcgNjEuNDg3ODc0OCw1Mi45NDA4NDkgTDYxLjQ2NTMwODYsNTIuOTg1OTgxNCBDNTcuMjk4MDg0MSw1Ny4xMzMxNDcxIDUxLjk3NzQ3Niw2MC4xMDQzNjMyIDQ2LjAzNTA0MzksNjEuMzg4MTI5MSBMNDYuMDM1MDQzOSw3Ny44NDY0MDk1IFogTTEyNi4zODgyNiw2Ni44NjkyMDc4IEwxMjYuMjY1NCw2Ni42ODg2NzgzIEMxMjQuMjk0NjE5LDYzLjM2MzkyNTEgMTIxLjE0NTM4LDYxLjE0NzQyMyAxMTcuNjY1MTcxLDYwLjE5MjEyMDYgQzExNC4wNjk2MjMsNTkuMjM2ODE4MiAxMTAuMTk4MjY3LDU5LjYzNzk5NTEgMTA2Ljc1MzE2MSw2MS42MTM3OTExIEwxMDYuNzczMjE5LDYxLjYxMzc5MTEgQzEwMy4zMzU2MzUsNjMuNTY0NTEzNSAxMDEuMDM2MzksNjYuNzUzODY5NSAxMDAuMDc2MDczLDcwLjMyOTM1ODIgQzk5LjEzMDgwMDQsNzMuODc3MjY2IDk5LjU0MjAwNjcsNzcuNzk4NzY5NyAxMDEuNTE3ODAzLDgxLjIxNjI5NTEgTDEwMS41ODU1MDEsODEuMzA0MDUyNSBDMTAzLjU2MzgwNSw4NC42NzY0NDU0IDEwNi43MTU1NSw4Ni45MzgwNzk5IDExMC4yMzMzNyw4Ny44NDgyNDk5IEMxMTMuNzY4NzQxLDg4Ljg0ODY4NDcgMTE3LjcwNzc5Niw4OC40MjQ5NDE2IDEyMS4xMDI3NTUsODYuNDQ5MTQ1NiBMMTIxLjI4NTc5Miw4Ni4zNjEzODgyIEMxMjQuNjI4MDk3LDg0LjM2NTUzMzQgMTI2Ljg1NDYyOCw4MS4yMTYyOTUxIDEyNy43ODIzNSw3Ny43NTYxNDQ3IEMxMjguNzMwMTMsNzQuMTg1NjcwNyAxMjguMzUxNTE5LDcwLjI4NDIyNTggMTI2LjM4ODI2LDY2Ljg2OTIwNzggWiI+Cg08L3BhdGg+CgkJCQk8cGF0aCBkPSJNMTg5Ljg1OTQ1Myw3MS43MDMzODg5IEwyMDUuODIxMjc3LDcxLjcwMzM4ODkgTDIwNS44MjEyNzcsMTIwLjQyNjMxOCBMMjI4LjgzODc5OSw5NC45NjY2MzE3IEwyNDcuOTc3NDQyLDk0Ljk2NjYzMTcgTDIyMC4xODg0MjMsMTI0LjQ2MzE2IEwyNDguMDkyNzgxLDE2MS44NTI4NDMgTDIyOS44MTY2NjgsMTYxLjg1Mjg0MyBMMjA1LjgyMTI3NywxMjguNDU0ODcgTDIwNS44MjEyNzcsMTYxLjg1Mjg0MyBMMTg5Ljg1OTQ1MywxNjEuODUyODQzIEwxODkuODU5NDUzLDcxLjcwMzM4ODkgWiBNMjY2LjUxOTMzNSwxMjguNjk4MDgzIEMyNjYuNTE5MzM1LDEzNi45OTQ5MjIgMjcyLjQ4Njg0MSwxNDkuMDU3ODA4IDI4Ni44NjQwMTYsMTQ5LjA1NzgwOCBDMjk1Ljc2MDExMywxNDkuMDU3ODA4IDMwMS42MTQ3ODgsMTQ0LjQyMTcwOCAzMDQuNjUxMTk1LDEzOC4zNDYzODYgQzMwNi4yNDA4NTgsMTM1LjM5NzczNiAzMDYuOTczMDA2LDEzMi4yNDU5OTEgMzA3LjIxODcyNywxMjguOTY2MzcgQzMwNy4zMjkwNSwxMjUuNzkyMDU4IDMwNi43Mjk3OTMsMTIyLjQ5MjM3OSAzMDUuMzgwODM1LDExOS41NjEyOCBDMzAyLjU4MjYyNywxMTMuMjQyNzQ1IDI5Ni4zNzE5MDgsMTA3Ljc2NDE3MyAyODYuNzQ2MTcxLDEwNy43NjQxNzMgQzI3My44MzgzMDUsMTA3Ljc2NDE3MyAyNjYuNTE5MzM1LDExOC4yMjk4NzQgMjY2LjUxOTMzNSwxMjguNTg3NzU5IEwyNjYuNTE5MzM1LDEyOC42OTgwODMgWiBNMzIzLjA1MjY3NiwxNjEuODUyODQzIEwzMDcuMDgzMzMsMTYxLjg1Mjg0MyBMMzA3LjA4MzMzLDE1Mi4yMjk2MTMgQzMwMi44MzMzNjIsMTYwLjAxMjQ0NCAyOTMuOTM0NzU4LDE2My45MTg5MDMgMjg0LjU0OTcyNywxNjMuOTE4OTAzIEMyNjMuMTA0MzE3LDE2My45MTg5MDMgMjUwLjU2MDAxOCwxNDcuMjE3NDA5IDI1MC41NjAwMTgsMTI4LjM0NDU0NiBDMjUwLjU2MDAxOCwxMDcuMjc1MjM5IDI2NS43ODcxODcsOTIuOTAzMDc4MyAyODQuNTQ5NzI3LDkyLjkwMzA3ODMgQzI5Ni43MzI5NjcsOTIuOTAzMDc4MyAzMDQuMTYyMjYxLDk5LjM1OTUxODIgMzA3LjA4MzMzLDEwNC43MjUyNTkgTDMwNy4wODMzMyw5NC45NjY2MzE3IEwzMjMuMDUyNjc2LDk0Ljk2NjYzMTcgTDMyMy4wNTI2NzYsMTYxLjg1Mjg0MyBaIE0zNDEuMTI1NjkzLDEwNy4yNzUyMzkgTDMzMi44NTM5MjgsMTA3LjI3NTIzOSBMMzMyLjg1MzkyOCw5NC45NjY2MzE3IEwzNDEuMTI1NjkzLDk0Ljk2NjYzMTcgTDM0MS4xMjU2OTMsOTEuMTk4MDc2NiBDMzQxLjEyNTY5Myw3MS4zMjQ3NzgzIDM1Ni4yMzc1MjQsNzAuMTI2MjYyNCAzNjcuNjk2MTM3LDY5Ljk5MzM3MjYgTDM2Ny42OTYxMzcsODIuMjc5NDEzNyBDMzYzLjY2NjgxNyw4Mi4yNzk0MTM3IDM1Ny4wOTUwMzksODIuMjc5NDEzNyAzNTcuMDk1MDM5LDkxLjY4MTk5NjIgTDM1Ny4wOTUwMzksOTQuOTY2NjMxNyBMMzY3LjY5NjEzNyw5NC45NjY2MzE3IEwzNjcuNjk2MTM3LDEwNy4yNzUyMzkgTDM1Ny4wOTUwMzksMTA3LjI3NTIzOSBMMzU3LjA5NTAzOSwxNjEuODUyODQzIEwzNDEuMTI1NjkzLDE2MS44NTI4NDMgTDM0MS4xMjU2OTMsMTA3LjI3NTIzOSBaIE0zNzguNTUwNDc5LDcxLjcwMzM4ODkgTDM5NC41MDcyODgsNzEuNzAzMzg4OSBMMzk0LjUwNzI4OCwxMjAuNDI2MzE4IEw0MTcuNTI5ODI1LDk0Ljk2NjYzMTcgTDQzNi42Njg0NjgsOTQuOTY2NjMxNyBMNDA4Ljg3OTQ0OSwxMjQuNDYzMTYgTDQzNi43Nzg3OTIsMTYxLjg1Mjg0MyBMNDE4LjUwMjY3OSwxNjEuODUyODQzIEwzOTQuNTA3Mjg4LDEyOC40NTQ4NyBMMzk0LjUwNzI4OCwxNjEuODUyODQzIEwzNzguNTUwNDc5LDE2MS44NTI4NDMgTDM3OC41NTA0NzksNzEuNzAzMzg4OSBaIE00NTUuMjEwMzYxLDEyOC42OTgwODMgQzQ1NS4yMTAzNjEsMTM2Ljk5NDkyMiA0NjEuMTc1MzU5LDE0OS4wNTc4MDggNDc1LjU1NTA0MiwxNDkuMDU3ODA4IEM0ODQuNDM4NjAyLDE0OS4wNTc4MDggNDkwLjI5MzI3NiwxNDQuNDIxNzA4IDQ5My4zMzQ2OTgsMTM4LjM0NjM4NiBDNDk0LjkyOTM3NiwxMzUuMzk3NzM2IDQ5NS42NjQwMzIsMTMyLjI0NTk5MSA0OTUuOTA0NzM4LDEyOC45NjYzNyBDNDk2LjAxNTA2MSwxMjUuNzkyMDU4IDQ5NS40MTU4MDMsMTIyLjQ5MjM3OSA0OTQuMDY0MzM5LDExOS41NjEyOCBDNDkxLjI3MTE0NSwxMTMuMjQyNzQ1IDQ4NS4wNjA0MjYsMTA3Ljc2NDE3MyA0NzUuNDM3MTk2LDEwNy43NjQxNzMgQzQ2Mi41MjY4MjMsMTA3Ljc2NDE3MyA0NTUuMjEwMzYxLDExOC4yMjk4NzQgNDU1LjIxMDM2MSwxMjguNTg3NzU5IEw0NTUuMjEwMzYxLDEyOC42OTgwODMgWiBNNTExLjczODY4NywxNjEuODUyODQzIEw0OTUuNzc0MzU1LDE2MS44NTI4NDMgTDQ5NS43NzQzNTUsMTUyLjIyOTYxMyBDNDkxLjUxMTg1MSwxNjAuMDEyNDQ0IDQ4Mi42MjA3NjksMTYzLjkxODkwMyA0NzMuMjQwNzUzLDE2My45MTg5MDMgQzQ1MS43OTUzNDMsMTYzLjkxODkwMyA0MzkuMjYxMDczLDE0Ny4yMTc0MDkgNDM5LjI2MTA3MywxMjguMzQ0NTQ2IEM0MzkuMjYxMDczLDEwNy4yNzUyMzkgNDU0LjQ4MzIyOCw5Mi45MDMwNzgzIDQ3My4yNDA3NTMsOTIuOTAzMDc4MyBDNDg1LjQxNjQ3LDkyLjkwMzA3ODMgNDkyLjg1MzI4Niw5OS4zNTk1MTgyIDQ5NS43NzQzNTUsMTA0LjcyNTI1OSBMNDk1Ljc3NDM1NSw5NC45NjY2MzE3IEw1MTEuNzM4Njg3LDk0Ljk2NjYzMTcgTDUxMS43Mzg2ODcsMTYxLjg1Mjg0MyBaIj4KDTwvcGF0aD4KCQk8L2c+Cjwvc3ZnPg==;container=0;" parent="GlH7Y8rs6A_fCsLxcxdf-110" vertex="1">
          <mxGeometry x="25" y="80.5" width="70" height="70" as="geometry" />
        </mxCell>
        <mxCell id="P0AFOmnKXR1hHFCW5aUR-64" value="" style="aspect=fixed;sketch=0;html=1;dashed=0;whitespace=wrap;fillColor=#2875E2;strokeColor=#ffffff;points=[[0.005,0.63,0],[0.1,0.2,0],[0.9,0.2,0],[0.5,0,0],[0.995,0.63,0],[0.72,0.99,0],[0.5,1,0],[0.28,0.99,0]];shape=mxgraph.kubernetes.icon2;kubernetesLabel=1;prIcon=sts;container=0;" parent="GlH7Y8rs6A_fCsLxcxdf-110" vertex="1">
          <mxGeometry x="35" y="153.5" width="50" height="48" as="geometry" />
        </mxCell>
        <mxCell id="P0AFOmnKXR1hHFCW5aUR-66" value="" style="aspect=fixed;sketch=0;html=1;dashed=0;whitespace=wrap;fillColor=#2875E2;strokeColor=#ffffff;points=[[0.005,0.63,0],[0.1,0.2,0],[0.9,0.2,0],[0.5,0,0],[0.995,0.63,0],[0.72,0.99,0],[0.5,1,0],[0.28,0.99,0]];shape=mxgraph.kubernetes.icon2;kubernetesLabel=1;prIcon=svc;container=0;" parent="GlH7Y8rs6A_fCsLxcxdf-110" vertex="1">
          <mxGeometry x="35" y="27" width="50" height="48" as="geometry" />
        </mxCell>
        <mxCell id="P0AFOmnKXR1hHFCW5aUR-102" value="" style="group;strokeColor=#CC6600;strokeWidth=3;opacity=50;" parent="1" vertex="1" connectable="0">
          <mxGeometry x="320" y="40" width="320" height="75" as="geometry" />
        </mxCell>
        <mxCell id="P0AFOmnKXR1hHFCW5aUR-19" value="" style="aspect=fixed;sketch=0;html=1;dashed=0;whitespace=wrap;fillColor=#2875E2;strokeColor=#ffffff;points=[[0.005,0.63,0],[0.1,0.2,0],[0.9,0.2,0],[0.5,0,0],[0.995,0.63,0],[0.72,0.99,0],[0.5,1,0],[0.28,0.99,0]];shape=mxgraph.kubernetes.icon2;kubernetesLabel=1;prIcon=hpa" parent="P0AFOmnKXR1hHFCW5aUR-102" vertex="1">
          <mxGeometry x="103" y="20.35714285714286" width="50" height="48" as="geometry" />
        </mxCell>
        <mxCell id="P0AFOmnKXR1hHFCW5aUR-20" value="" style="aspect=fixed;sketch=0;html=1;dashed=0;whitespace=wrap;fillColor=#2875E2;strokeColor=#ffffff;points=[[0.005,0.63,0],[0.1,0.2,0],[0.9,0.2,0],[0.5,0,0],[0.995,0.63,0],[0.72,0.99,0],[0.5,1,0],[0.28,0.99,0]];shape=mxgraph.kubernetes.icon2;kubernetesLabel=1;prIcon=deploy" parent="P0AFOmnKXR1hHFCW5aUR-102" vertex="1">
          <mxGeometry x="177" y="20.35714285714286" width="50" height="48" as="geometry" />
        </mxCell>
        <mxCell id="P0AFOmnKXR1hHFCW5aUR-21" value="" style="aspect=fixed;sketch=0;html=1;dashed=0;whitespace=wrap;fillColor=#2875E2;strokeColor=#ffffff;points=[[0.005,0.63,0],[0.1,0.2,0],[0.9,0.2,0],[0.5,0,0],[0.995,0.63,0],[0.72,0.99,0],[0.5,1,0],[0.28,0.99,0]];shape=mxgraph.kubernetes.icon2;kubernetesLabel=1;prIcon=pod" parent="P0AFOmnKXR1hHFCW5aUR-102" vertex="1">
          <mxGeometry x="30" y="21.42857142857143" width="50" height="48" as="geometry" />
        </mxCell>
        <mxCell id="P0AFOmnKXR1hHFCW5aUR-68" value="" style="aspect=fixed;sketch=0;html=1;dashed=0;whitespace=wrap;fillColor=#2875E2;strokeColor=#ffffff;points=[[0.005,0.63,0],[0.1,0.2,0],[0.9,0.2,0],[0.5,0,0],[0.995,0.63,0],[0.72,0.99,0],[0.5,1,0],[0.28,0.99,0]];shape=mxgraph.kubernetes.icon2;kubernetesLabel=1;prIcon=svc" parent="P0AFOmnKXR1hHFCW5aUR-102" vertex="1">
          <mxGeometry x="250" y="19.28571428571429" width="50" height="48" as="geometry" />
        </mxCell>
        <mxCell id="P0AFOmnKXR1hHFCW5aUR-96" value="&lt;b&gt;UDP&lt;/b&gt;" style="text;html=1;strokeColor=none;fillColor=none;align=center;verticalAlign=middle;whiteSpace=wrap;rounded=0;" parent="P0AFOmnKXR1hHFCW5aUR-102" vertex="1">
          <mxGeometry x="280" width="40" height="21.42857142857143" as="geometry" />
        </mxCell>
        <mxCell id="GlH7Y8rs6A_fCsLxcxdf-37" value="" style="group" parent="1" vertex="1" connectable="0">
          <mxGeometry x="131.5" y="-370" width="142" height="60" as="geometry" />
        </mxCell>
        <mxCell id="P0AFOmnKXR1hHFCW5aUR-82" value="" style="sketch=0;outlineConnect=0;fontColor=#232F3E;gradientColor=none;fillColor=#8C4FFF;strokeColor=none;dashed=0;verticalLabelPosition=bottom;verticalAlign=top;align=center;html=1;fontSize=12;fontStyle=0;aspect=fixed;pointerEvents=1;shape=mxgraph.aws4.network_load_balancer;" parent="GlH7Y8rs6A_fCsLxcxdf-37" vertex="1">
          <mxGeometry x="47" y="12" width="48" height="48" as="geometry" />
        </mxCell>
        <mxCell id="P0AFOmnKXR1hHFCW5aUR-85" value="Envoy gateway" style="text;html=1;strokeColor=none;fillColor=none;align=center;verticalAlign=middle;whiteSpace=wrap;rounded=0;" parent="GlH7Y8rs6A_fCsLxcxdf-37" vertex="1">
          <mxGeometry width="142" height="10" as="geometry" />
        </mxCell>
        <mxCell id="GlH7Y8rs6A_fCsLxcxdf-2" value="" style="rounded=0;whiteSpace=wrap;html=1;opacity=50;strokeWidth=3;strokeColor=#CC0066;" parent="1" vertex="1">
          <mxGeometry x="160" y="-50" width="88" height="210" as="geometry" />
        </mxCell>
        <mxCell id="P0AFOmnKXR1hHFCW5aUR-15" value="" style="group" parent="1" vertex="1" connectable="0">
          <mxGeometry x="175" y="37.89142857142857" width="60" height="56.78571428571428" as="geometry" />
        </mxCell>
        <mxCell id="P0AFOmnKXR1hHFCW5aUR-10" value="" style="outlineConnect=0;dashed=0;verticalLabelPosition=bottom;verticalAlign=top;align=center;html=1;shape=mxgraph.aws3.memcached;fillColor=#2E73B8;gradientColor=none;container=0;" parent="P0AFOmnKXR1hHFCW5aUR-15" vertex="1">
          <mxGeometry x="7" width="45" height="43.10240963855422" as="geometry" />
        </mxCell>
        <mxCell id="P0AFOmnKXR1hHFCW5aUR-13" value="Memcached" style="text;html=1;strokeColor=none;fillColor=none;align=center;verticalAlign=middle;whiteSpace=wrap;rounded=0;container=0;" parent="P0AFOmnKXR1hHFCW5aUR-15" vertex="1">
          <mxGeometry x="-1" y="47.89156626506024" width="60" height="8.894148020654045" as="geometry" />
        </mxCell>
        <mxCell id="P0AFOmnKXR1hHFCW5aUR-65" value="" style="aspect=fixed;sketch=0;html=1;dashed=0;whitespace=wrap;fillColor=#2875E2;strokeColor=#ffffff;points=[[0.005,0.63,0],[0.1,0.2,0],[0.9,0.2,0],[0.5,0,0],[0.995,0.63,0],[0.72,0.99,0],[0.5,1,0],[0.28,0.99,0]];shape=mxgraph.kubernetes.icon2;kubernetesLabel=1;prIcon=deploy" parent="1" vertex="1">
          <mxGeometry x="180" y="100.25285714285714" width="50" height="48" as="geometry" />
        </mxCell>
        <mxCell id="P0AFOmnKXR1hHFCW5aUR-61" value="" style="aspect=fixed;sketch=0;html=1;dashed=0;whitespace=wrap;fillColor=#2875E2;strokeColor=#ffffff;points=[[0.005,0.63,0],[0.1,0.2,0],[0.9,0.2,0],[0.5,0,0],[0.995,0.63,0],[0.72,0.99,0],[0.5,1,0],[0.28,0.99,0]];shape=mxgraph.kubernetes.icon2;kubernetesLabel=1;prIcon=svc" parent="1" vertex="1">
          <mxGeometry x="179" y="-19.99714285714286" width="50" height="48" as="geometry" />
        </mxCell>
        <mxCell id="GlH7Y8rs6A_fCsLxcxdf-7" value="&lt;b&gt;Cache&lt;/b&gt;" style="text;html=1;strokeColor=none;fillColor=none;align=center;verticalAlign=middle;whiteSpace=wrap;rounded=0;" parent="1" vertex="1">
          <mxGeometry x="182" y="-50" width="40" height="21.42857142857143" as="geometry" />
        </mxCell>
        <mxCell id="GlH7Y8rs6A_fCsLxcxdf-52" style="edgeStyle=orthogonalEdgeStyle;rounded=0;orthogonalLoop=1;jettySize=auto;html=1;entryX=0.5;entryY=0;entryDx=0;entryDy=0;entryPerimeter=0;" parent="1" source="P0AFOmnKXR1hHFCW5aUR-82" target="P0AFOmnKXR1hHFCW5aUR-68" edge="1">
          <mxGeometry relative="1" as="geometry">
            <Array as="points">
              <mxPoint x="500" y="-334" />
              <mxPoint x="500" y="10" />
              <mxPoint x="595" y="10" />
            </Array>
          </mxGeometry>
        </mxCell>
        <mxCell id="GlH7Y8rs6A_fCsLxcxdf-74" style="edgeStyle=orthogonalEdgeStyle;rounded=0;orthogonalLoop=1;jettySize=auto;html=1;exitX=0.5;exitY=0;exitDx=0;exitDy=0;exitPerimeter=0;entryX=1;entryY=0.75;entryDx=0;entryDy=0;" parent="1" source="P0AFOmnKXR1hHFCW5aUR-19" target="GlH7Y8rs6A_fCsLxcxdf-57" edge="1">
          <mxGeometry relative="1" as="geometry" />
        </mxCell>
        <mxCell id="GlH7Y8rs6A_fCsLxcxdf-89" value="" style="group" parent="1" vertex="1" connectable="0">
          <mxGeometry x="-100" y="213.5" width="180" height="75" as="geometry" />
        </mxCell>
        <mxCell id="P0AFOmnKXR1hHFCW5aUR-99" value="" style="rounded=0;whiteSpace=wrap;html=1;opacity=50;strokeWidth=3;strokeColor=#CC6600;" parent="GlH7Y8rs6A_fCsLxcxdf-89" vertex="1">
          <mxGeometry width="180" height="75" as="geometry" />
        </mxCell>
        <mxCell id="P0AFOmnKXR1hHFCW5aUR-31" value="" style="aspect=fixed;sketch=0;html=1;dashed=0;whitespace=wrap;fillColor=#2875E2;strokeColor=#ffffff;points=[[0.005,0.63,0],[0.1,0.2,0],[0.9,0.2,0],[0.5,0,0],[0.995,0.63,0],[0.72,0.99,0],[0.5,1,0],[0.28,0.99,0]];shape=mxgraph.kubernetes.icon2;kubernetesLabel=1;prIcon=deploy" parent="GlH7Y8rs6A_fCsLxcxdf-89" vertex="1">
          <mxGeometry x="40" y="13.5" width="50" height="48" as="geometry" />
        </mxCell>
        <mxCell id="P0AFOmnKXR1hHFCW5aUR-33" value="" style="aspect=fixed;sketch=0;html=1;dashed=0;whitespace=wrap;fillColor=#2875E2;strokeColor=#ffffff;points=[[0.005,0.63,0],[0.1,0.2,0],[0.9,0.2,0],[0.5,0,0],[0.995,0.63,0],[0.72,0.99,0],[0.5,1,0],[0.28,0.99,0]];shape=mxgraph.kubernetes.icon2;kubernetesLabel=1;prIcon=pod" parent="GlH7Y8rs6A_fCsLxcxdf-89" vertex="1">
          <mxGeometry x="110" y="13.5" width="50" height="48" as="geometry" />
        </mxCell>
        <mxCell id="P0AFOmnKXR1hHFCW5aUR-100" value="&lt;b&gt;Logger&lt;/b&gt;" style="text;html=1;strokeColor=none;fillColor=none;align=center;verticalAlign=middle;whiteSpace=wrap;rounded=0;" parent="GlH7Y8rs6A_fCsLxcxdf-89" vertex="1">
          <mxGeometry width="60" height="20" as="geometry" />
        </mxCell>
        <mxCell id="GlH7Y8rs6A_fCsLxcxdf-91" value="" style="group" parent="1" vertex="1" connectable="0">
          <mxGeometry x="-240" y="37.889999999999986" width="320" height="75" as="geometry" />
        </mxCell>
        <mxCell id="P0AFOmnKXR1hHFCW5aUR-97" value="" style="rounded=0;whiteSpace=wrap;html=1;opacity=50;strokeWidth=3;container=0;strokeColor=#CC6600;" parent="GlH7Y8rs6A_fCsLxcxdf-91" vertex="1">
          <mxGeometry width="320" height="75" as="geometry" />
        </mxCell>
        <mxCell id="P0AFOmnKXR1hHFCW5aUR-1" value="" style="aspect=fixed;sketch=0;html=1;dashed=0;whitespace=wrap;fillColor=#2875E2;strokeColor=#ffffff;points=[[0.005,0.63,0],[0.1,0.2,0],[0.9,0.2,0],[0.5,0,0],[0.995,0.63,0],[0.72,0.99,0],[0.5,1,0],[0.28,0.99,0]];shape=mxgraph.kubernetes.icon2;kubernetesLabel=1;prIcon=hpa;container=0;" parent="GlH7Y8rs6A_fCsLxcxdf-91" vertex="1">
          <mxGeometry x="177" y="13.502857142857152" width="50" height="48" as="geometry" />
        </mxCell>
        <mxCell id="P0AFOmnKXR1hHFCW5aUR-2" value="" style="aspect=fixed;sketch=0;html=1;dashed=0;whitespace=wrap;fillColor=#2875E2;strokeColor=#ffffff;points=[[0.005,0.63,0],[0.1,0.2,0],[0.9,0.2,0],[0.5,0,0],[0.995,0.63,0],[0.72,0.99,0],[0.5,1,0],[0.28,0.99,0]];shape=mxgraph.kubernetes.icon2;kubernetesLabel=1;prIcon=deploy;container=0;" parent="GlH7Y8rs6A_fCsLxcxdf-91" vertex="1">
          <mxGeometry x="103" y="13.500000000000014" width="50" height="48" as="geometry" />
        </mxCell>
        <mxCell id="P0AFOmnKXR1hHFCW5aUR-4" value="" style="aspect=fixed;sketch=0;html=1;dashed=0;whitespace=wrap;fillColor=#2875E2;strokeColor=#ffffff;points=[[0.005,0.63,0],[0.1,0.2,0],[0.9,0.2,0],[0.5,0,0],[0.995,0.63,0],[0.72,0.99,0],[0.5,1,0],[0.28,0.99,0]];shape=mxgraph.kubernetes.icon2;kubernetesLabel=1;prIcon=pod;container=0;" parent="GlH7Y8rs6A_fCsLxcxdf-91" vertex="1">
          <mxGeometry x="250" y="13.500000000000014" width="50" height="48" as="geometry" />
        </mxCell>
        <mxCell id="P0AFOmnKXR1hHFCW5aUR-62" value="" style="aspect=fixed;sketch=0;html=1;dashed=0;whitespace=wrap;fillColor=#2875E2;strokeColor=#ffffff;points=[[0.005,0.63,0],[0.1,0.2,0],[0.9,0.2,0],[0.5,0,0],[0.995,0.63,0],[0.72,0.99,0],[0.5,1,0],[0.28,0.99,0]];shape=mxgraph.kubernetes.icon2;kubernetesLabel=1;prIcon=svc;container=0;" parent="GlH7Y8rs6A_fCsLxcxdf-91" vertex="1">
          <mxGeometry x="30" y="13.502857142857152" width="50" height="48" as="geometry" />
        </mxCell>
        <mxCell id="P0AFOmnKXR1hHFCW5aUR-98" value="&lt;b&gt;TCP&lt;/b&gt;" style="text;html=1;strokeColor=none;fillColor=none;align=center;verticalAlign=middle;whiteSpace=wrap;rounded=0;container=0;" parent="GlH7Y8rs6A_fCsLxcxdf-91" vertex="1">
          <mxGeometry y="0.0014285714285620088" width="40" height="21.42857142857143" as="geometry" />
        </mxCell>
        <mxCell id="GlH7Y8rs6A_fCsLxcxdf-51" style="edgeStyle=orthogonalEdgeStyle;rounded=0;orthogonalLoop=1;jettySize=auto;html=1;entryX=0.5;entryY=0;entryDx=0;entryDy=0;entryPerimeter=0;" parent="1" source="P0AFOmnKXR1hHFCW5aUR-82" target="P0AFOmnKXR1hHFCW5aUR-62" edge="1">
          <mxGeometry relative="1" as="geometry">
            <Array as="points">
              <mxPoint x="-100" y="-334" />
              <mxPoint x="-100" y="10" />
              <mxPoint x="-185" y="10" />
            </Array>
          </mxGeometry>
        </mxCell>
        <mxCell id="GlH7Y8rs6A_fCsLxcxdf-49" style="edgeStyle=orthogonalEdgeStyle;rounded=0;orthogonalLoop=1;jettySize=auto;html=1;exitX=0.5;exitY=0;exitDx=0;exitDy=0;exitPerimeter=0;entryX=0.005;entryY=0.63;entryDx=0;entryDy=0;entryPerimeter=0;" parent="1" source="P0AFOmnKXR1hHFCW5aUR-4" target="P0AFOmnKXR1hHFCW5aUR-61" edge="1">
          <mxGeometry relative="1" as="geometry" />
        </mxCell>
        <mxCell id="GlH7Y8rs6A_fCsLxcxdf-73" style="edgeStyle=orthogonalEdgeStyle;rounded=0;orthogonalLoop=1;jettySize=auto;html=1;exitX=0.5;exitY=0;exitDx=0;exitDy=0;exitPerimeter=0;entryX=0;entryY=0.75;entryDx=0;entryDy=0;" parent="1" source="P0AFOmnKXR1hHFCW5aUR-1" target="GlH7Y8rs6A_fCsLxcxdf-57" edge="1">
          <mxGeometry relative="1" as="geometry" />
        </mxCell>
        <mxCell id="GlH7Y8rs6A_fCsLxcxdf-93" style="edgeStyle=orthogonalEdgeStyle;rounded=0;orthogonalLoop=1;jettySize=auto;html=1;exitX=0.5;exitY=1;exitDx=0;exitDy=0;exitPerimeter=0;" parent="1" source="P0AFOmnKXR1hHFCW5aUR-4" edge="1">
          <mxGeometry relative="1" as="geometry">
            <mxPoint x="170" y="240" as="targetPoint" />
            <Array as="points">
              <mxPoint x="35" y="140" />
              <mxPoint x="120" y="140" />
              <mxPoint x="120" y="240" />
            </Array>
          </mxGeometry>
        </mxCell>
        <mxCell id="GlH7Y8rs6A_fCsLxcxdf-94" style="edgeStyle=orthogonalEdgeStyle;rounded=0;orthogonalLoop=1;jettySize=auto;html=1;exitX=0.5;exitY=1;exitDx=0;exitDy=0;exitPerimeter=0;" parent="1" source="P0AFOmnKXR1hHFCW5aUR-21" edge="1">
          <mxGeometry relative="1" as="geometry">
            <mxPoint x="230" y="240" as="targetPoint" />
            <Array as="points">
              <mxPoint x="375" y="140" />
              <mxPoint x="290" y="140" />
              <mxPoint x="290" y="240" />
              <mxPoint x="230" y="240" />
            </Array>
          </mxGeometry>
        </mxCell>
        <mxCell id="GlH7Y8rs6A_fCsLxcxdf-95" style="edgeStyle=orthogonalEdgeStyle;rounded=0;orthogonalLoop=1;jettySize=auto;html=1;exitX=0.5;exitY=0;exitDx=0;exitDy=0;exitPerimeter=0;entryX=0.995;entryY=0.63;entryDx=0;entryDy=0;entryPerimeter=0;" parent="1" source="P0AFOmnKXR1hHFCW5aUR-21" target="P0AFOmnKXR1hHFCW5aUR-61" edge="1">
          <mxGeometry relative="1" as="geometry" />
        </mxCell>
        <mxCell id="GlH7Y8rs6A_fCsLxcxdf-96" style="edgeStyle=orthogonalEdgeStyle;rounded=0;orthogonalLoop=1;jettySize=auto;html=1;exitX=0.995;exitY=0.63;exitDx=0;exitDy=0;exitPerimeter=0;" parent="1" source="P0AFOmnKXR1hHFCW5aUR-33" edge="1">
          <mxGeometry relative="1" as="geometry">
            <mxPoint x="170" y="257" as="targetPoint" />
          </mxGeometry>
        </mxCell>
        <mxCell id="GlH7Y8rs6A_fCsLxcxdf-98" style="edgeStyle=orthogonalEdgeStyle;rounded=0;orthogonalLoop=1;jettySize=auto;html=1;exitX=0.5;exitY=0;exitDx=0;exitDy=0;entryX=0.5;entryY=1;entryDx=0;entryDy=0;entryPerimeter=0;" parent="1" source="P0AFOmnKXR1hHFCW5aUR-105" target="P0AFOmnKXR1hHFCW5aUR-67" edge="1">
          <mxGeometry relative="1" as="geometry" />
        </mxCell>
        <mxCell id="GlH7Y8rs6A_fCsLxcxdf-99" style="edgeStyle=orthogonalEdgeStyle;rounded=0;orthogonalLoop=1;jettySize=auto;html=1;exitX=0.5;exitY=1;exitDx=0;exitDy=0;exitPerimeter=0;entryX=0.5;entryY=0;entryDx=0;entryDy=0;entryPerimeter=0;" parent="1" source="P0AFOmnKXR1hHFCW5aUR-33" target="P0AFOmnKXR1hHFCW5aUR-67" edge="1">
          <mxGeometry relative="1" as="geometry" />
        </mxCell>
        <mxCell id="GlH7Y8rs6A_fCsLxcxdf-111" value="" style="group" parent="1" vertex="1" connectable="0">
          <mxGeometry x="-190" y="344" width="270" height="76" as="geometry" />
        </mxCell>
        <mxCell id="GlH7Y8rs6A_fCsLxcxdf-19" value="" style="rounded=0;whiteSpace=wrap;html=1;opacity=50;strokeWidth=3;strokeColor=#0000FF;" parent="GlH7Y8rs6A_fCsLxcxdf-111" vertex="1">
          <mxGeometry width="270" height="75" as="geometry" />
        </mxCell>
        <mxCell id="P0AFOmnKXR1hHFCW5aUR-93" value="" style="group" parent="GlH7Y8rs6A_fCsLxcxdf-111" vertex="1" connectable="0">
          <mxGeometry x="10" y="10" width="240" height="66" as="geometry" />
        </mxCell>
        <mxCell id="P0AFOmnKXR1hHFCW5aUR-16" value="" style="group" parent="P0AFOmnKXR1hHFCW5aUR-93" vertex="1" connectable="0">
          <mxGeometry x="78" width="84" height="66" as="geometry" />
        </mxCell>
        <mxCell id="P0AFOmnKXR1hHFCW5aUR-8" value="" style="shape=image;aspect=fixed;image=data:image/svg+xml,PHN2ZyB4bWxucz0iaHR0cDovL3d3dy53My5vcmcvMjAwMC9zdmciICB2aWV3Qm94PSIwIDAgNDggNDgiIHdpZHRoPSI0OHB4IiBoZWlnaHQ9IjQ4cHgiPjxwYXRoIGZpbGw9IiMyOWI2ZjYiIGQ9Ik0zNywyNGMwLTMuMzE0LTIuNjg2LTYtNi02SDUuOTE4QzUuMzIzLDE5Ljg5NCw1LDIxLjkwOSw1LDI0czAuMzIzLDQuMTA2LDAuOTE4LDZIMzEgQzM0LjMxNCwzMCwzNywyNy4zMTQsMzcsMjR6Ii8+PHBhdGggZmlsbD0iIzRkYjZhYyIgZD0iTTI1LDQ0YzYuNTI0LDAsMTIuMzA1LTMuMTMzLDE1Ljk1NC03Ljk2OEMzOC44MzUsMzQuMTUxLDM2LjA1NSwzMywzMywzM0g3LjE1NyBDMTAuNDUzLDM5LjUyLDE3LjE5Niw0NCwyNSw0NHoiLz48cGF0aCBmaWxsPSIjZmZjYTI4IiBkPSJNMjUsNEMxNy4xOTUsNCwxMC40NTMsOC40OCw3LjE1NywxNUgzM2MzLjA1MSwwLDUuODI4LTEuMTQ4LDcuOTQ2LTMuMDI0IEMzNy4yOTksNy4xMzgsMzEuNTI1LDQsMjUsNHoiLz48cGF0aCBmaWxsPSIjZjlhODI1IiBkPSJNMjIuMDczLDE1Yy0xLjUxMy0zLjM2Ny0zLjg0NS02LjI4OC02Ljc0Ny04LjUwMUMxMS44MTcsOC40NDMsOC45NTcsMTEuNDEyLDcuMTQzLDE1SDIyLjA3M3oiLz48cGF0aCBmaWxsPSIjMDA5Njg4IiBkPSJNMTUuMzI2LDQxLjUwMWMyLjkwMi0yLjIxMyw1LjIzMy01LjEzNCw2Ljc0Ny04LjUwMUg3LjE0MyBDOC45NTcsMzYuNTg4LDExLjgxNywzOS41NTcsMTUuMzI2LDQxLjUwMXoiLz48cGF0aCBmaWxsPSIjMjEyMTIxIiBkPSJNNS45MjgsMThDNS4zMzIsMTkuODk1LDUsMjEuOTA3LDUsMjRzMC4zMzIsNC4xMDUsMC45MjgsNmgxNy4yMzRDMjMuNzAzLDI4LjA5MiwyNCwyNi4wODEsMjQsMjQgcy0wLjI5Ny00LjA5Mi0wLjgzNy02SDUuOTI4eiIvPjwvc3ZnPg==;" parent="P0AFOmnKXR1hHFCW5aUR-16" vertex="1">
          <mxGeometry x="18" width="48" height="48" as="geometry" />
        </mxCell>
        <mxCell id="P0AFOmnKXR1hHFCW5aUR-11" value="Elasticsearch" style="text;html=1;strokeColor=none;fillColor=none;align=center;verticalAlign=middle;whiteSpace=wrap;rounded=0;" parent="P0AFOmnKXR1hHFCW5aUR-16" vertex="1">
          <mxGeometry y="48" width="84" height="18" as="geometry" />
        </mxCell>
        <mxCell id="P0AFOmnKXR1hHFCW5aUR-63" value="" style="aspect=fixed;sketch=0;html=1;dashed=0;whitespace=wrap;fillColor=#2875E2;strokeColor=#ffffff;points=[[0.005,0.63,0],[0.1,0.2,0],[0.9,0.2,0],[0.5,0,0],[0.995,0.63,0],[0.72,0.99,0],[0.5,1,0],[0.28,0.99,0]];shape=mxgraph.kubernetes.icon2;kubernetesLabel=1;prIcon=sts" parent="P0AFOmnKXR1hHFCW5aUR-93" vertex="1">
          <mxGeometry y="9" width="50" height="48" as="geometry" />
        </mxCell>
        <mxCell id="P0AFOmnKXR1hHFCW5aUR-67" value="" style="aspect=fixed;sketch=0;html=1;dashed=0;whitespace=wrap;fillColor=#2875E2;strokeColor=#ffffff;points=[[0.005,0.63,0],[0.1,0.2,0],[0.9,0.2,0],[0.5,0,0],[0.995,0.63,0],[0.72,0.99,0],[0.5,1,0],[0.28,0.99,0]];shape=mxgraph.kubernetes.icon2;kubernetesLabel=1;prIcon=svc" parent="P0AFOmnKXR1hHFCW5aUR-93" vertex="1">
          <mxGeometry x="190" y="9" width="50" height="48" as="geometry" />
        </mxCell>
        <mxCell id="GlH7Y8rs6A_fCsLxcxdf-28" value="&lt;b&gt;Log storage&lt;/b&gt;" style="text;html=1;strokeColor=none;fillColor=none;align=center;verticalAlign=middle;whiteSpace=wrap;rounded=0;" parent="P0AFOmnKXR1hHFCW5aUR-93" vertex="1">
          <mxGeometry y="-11" width="90" height="20" as="geometry" />
        </mxCell>
        <mxCell id="GlH7Y8rs6A_fCsLxcxdf-112" value="" style="group" parent="1" vertex="1" connectable="0">
          <mxGeometry x="-190" y="474" width="270" height="76.5" as="geometry" />
        </mxCell>
        <mxCell id="GlH7Y8rs6A_fCsLxcxdf-36" value="" style="group;strokeColor=#0000FF;container=0;strokeWidth=3;opacity=50;" parent="GlH7Y8rs6A_fCsLxcxdf-112" vertex="1" connectable="0">
          <mxGeometry width="270" height="76.5" as="geometry" />
        </mxCell>
        <mxCell id="P0AFOmnKXR1hHFCW5aUR-105" value="" style="shape=image;aspect=fixed;image=data:image/svg+xml,PHN2ZyB4bWxucz0iaHR0cDovL3d3dy53My5vcmcvMjAwMC9zdmciIHdpZHRoPSIxMjAiIGhlaWdodD0iNjAiPjxwYXRoIGQ9Ik00OC40MiAzMS44ODhsMS4zNjUtMS43MDUgMy40NTMtMy42NTZoMi43NGwtNC41NyA0Ljg3OCA0Ljg2MiA2LjQ4NGgtMi44MmwtMy42NDUtNC45ODItMS4zMjYgMS4wOTZ2My44OTJINDYuMXYtMTZoMi4zOTVWMjkuN2wtLjEyNiAyLjE5MnptOS41NTMtOC4zNDhjLS4wMjMtLjM2Ny4xMDYtLjcyOC4zNTYtLjk5OGExLjM5IDEuMzkgMCAwIDEgMS4wMTQtLjM0NWMuMzY0LS4wMjIuNzIuMTAyLjk5Mi4zNDVhMS4zNCAxLjM0IDAgMCAxIC4zNS45OTggMS4zMSAxLjMxIDAgMCAxLS4zNTEuOTdjLS4yNjcuMjUtLjYyNi4zOC0uOTkyLjM1Ni0uMzczLjAyNi0uNzQtLjEwMy0xLjAxNC0uMzU2YTEuMzEgMS4zMSAwIDAgMS0uMzU2LS45N3ptMi41NiAxNC4zNzdINTguMTJ2LTExLjRoMi40MTJ6bTkuMjYyLTExLjU5N2MxLjI4LS4wNSAyLjUwOC41MjMgMy4zIDEuNTRxMS4yIDEuNTQ2IDEuMiA0LjMzYzAgMS44NjQtLjQgMy4zLTEuMjA2IDQuMzUyLS44MzMuOTgyLTIuMDU2IDEuNTQ4LTMuMzQzIDEuNTQ4YTQuNCA0LjQgMCAwIDEtMy4zNDMtMS41NDhoLS4xNjRsLS40NDQgMS4zNDNoLTEuOHYtMTZoMi40Mjh2My44MzdsLS4wNDQgMS4yNS0uMDYgMS4wNThoLjEwNGMuNzUtMS4xMzcgMi4wNDQtMS43OTIgMy40MDQtMS43MnptLS42MyAxLjk3M2MtLjgtLjA3NS0xLjU4My4yNDctMi4xLjg2LS40MjguNTQ4LS42NTIgMS41My0uNjYzIDIuODcydi4xNjRxMCAyLjA3Mi42NTggMy4wMDRjLjUuNjU2IDEuMzIgMS4wMDcgMi4xNS45MzJhMi4xOSAyLjE5IDAgMCAwIDEuOTQ2LTEuMDE5IDUuMzcgNS4zNyAwIDAgMCAuNjYzLTIuOTM4cTAtMy44NzUtMi42NTMtMy44NzV6TTg0LjIgMzcuOWwtLjQ4Mi0xLjU4aC0uMDgyYTQuNjMgNC42MyAwIDAgMS0xLjY0NCAxLjQwOWMtLjY3OC4yNzUtMS40MDYuNDA0LTIuMTM4LjM3OC0uOTU3LjA1Ny0xLjg5Ny0uMjY4LTIuNjE0LS45MDRhMy40IDMuNCAwIDAgMS0uOTQzLTIuNTYgMy4wMSAzLjAxIDAgMCAxIDEuMzEtMi42NTNxMS4zLS44OTMgMy45NzQtLjk3NmwxLjk2Mi0uMDZ2LS42MDhjLjA0OC0uNTkyLS4xMzItMS4xOC0uNTA0LTEuNjQ0YTIuMDcgMi4wNyAwIDAgMC0xLjU3OS0uNTQ4IDUuNTEgNS41MSAwIDAgMC0xLjY3Ny4yNTIgMTQuMDYgMTQuMDYgMCAwIDAtMS41NTEuNjI1bC0uNzg0LTEuNzI3Yy42NDItLjMzIDEuMzIzLS41NzcgMi4wMjgtLjczNGE5LjE0IDkuMTQgMCAwIDEgMi4wNzctLjI1MnEyLjE2IDAgMy4zLjk0OCAxLjEzLjk0OCAxLjA5NiAyLjk2NXY3LjY3M3ptLTMuNTk2LTEuNjQ0YTIuOTcgMi45NyAwIDAgMCAyLjExLS43MzRjLjU1NC0uNTM4Ljg0Ni0xLjMuOC0yLjA2di0uOTg3bC0xLjQ2My4wNjZhNC45NCA0Ljk0IDAgMCAwLTIuNDc3LjU0OCAxLjczIDEuNzMgMCAwIDAtLjc3OCAxLjU1NyAxLjUzIDEuNTMgMCAwIDAgLjQ0OSAxLjE3MyAxLjk1IDEuOTUgMCAwIDAgMS4zODcuNDM4ek05OS4zIDM3LjloLTIuNDI4di03YTMuMDcgMy4wNyAwIDAgMC0uNTQ4LTEuOTYyIDIuMDUgMi4wNSAwIDAgMC0xLjY4My0uNjQ3IDIuNjggMi42OCAwIDAgMC0yLjI0Mi45MDRxLS43MDcuOTA0LS43MDcgMy4wM3Y1LjY2MmgtMi40MTd2LTExLjM2aDEuOWwuMzQgMS40ODVoLjEyNmEzLjMzIDMuMzMgMCAwIDEgMS40NTgtMS4yNSA0Ljg2IDQuODYgMCAwIDEgMi4wOTQtLjQ0NHE0LjA5NCAwIDQuMDk0IDQuMTZ6bTEwLjQ3IDBsLS40ODItMS41OGgtLjA4MmE0LjYzIDQuNjMgMCAwIDEtMS42NDQgMS40MDljLS42NzguMjc1LTEuNDA2LjQwNC0yLjEzOC4zNzhhMy42MSAzLjYxIDAgMCAxLTIuNjE0LS45MDQgMy40IDMuNCAwIDAgMS0uOTQzLTIuNTYgMy4wMSAzLjAxIDAgMCAxIDEuMzEtMi42NTNxMS4zLS44OTMgMy45NzQtLjk3NmwxLjk2Mi0uMDZ2LS42MDhjLjA0OC0uNTkyLS4xMzItMS4xOC0uNTA0LTEuNjQ0YTIuMDcgMi4wNyAwIDAgMC0xLjU3OS0uNTQ4IDUuNTEgNS41MSAwIDAgMC0xLjY3Ny4yNTIgMTQuMDYgMTQuMDYgMCAwIDAtMS41NTEuNjI1bC0uNzg0LTEuNzI3Yy42NDItLjMzIDEuMzIzLS41NzcgMi4wMjgtLjczNGE5LjIxIDkuMjEgMCAwIDEgMi4wNzctLjI1MnEyLjE2IDAgMy4zLjk0OCAxLjEzLjk0OCAxLjA5NiAyLjk2NXY3LjY3M3ptLTMuNTk2LTEuNjQ0YTIuOTcgMi45NyAwIDAgMCAyLjExLS43MzRjLjU1NC0uNTM4Ljg0Ni0xLjMuOC0yLjA2di0uOTg3bC0xLjQ2My4wNjZhNC45NCA0Ljk0IDAgMCAwLTIuNDc3LjU0OCAxLjczIDEuNzMgMCAwIDAtLjc3OCAxLjU1NyAxLjUzIDEuNTMgMCAwIDAgLjQ0OSAxLjE3MyAxLjk0IDEuOTQgMCAwIDAgMS4zNTkuNDM4eiIvPjxnIGZpbGwtcnVsZT0iZXZlbm9kZCI+PHBhdGggZD0iTTguNDggMjQuNXYyMy4xMjhsMTYuNDQtMTguOTMzQzE5Ljg4IDI1LjkzMiAxNC4yMjYgMjQuNSA4LjQ4IDI0LjV6IiBmaWxsPSIjMzQzNzQxIi8+PHBhdGggZD0iTTguNDggNy45NlYyNC41YzUuNzQ1IDAgMTEuMzk4IDEuNDQyIDE2LjQ0IDQuMTk0TDQyLjkxOCA3Ljk2eiIgZmlsbD0iI2YwNGU5OCIvPjxwYXRoIGQ9Ik0yOC40NTQgMzAuOTAyTDEwLjExMyA1Mi4wNEg0Mi4yM2MtMS43NTItOC41MzUtNi42NzUtMTYuMDg4LTEzLjc3NS0yMS4xMzd6IiBmaWxsPSIjMDBiZmIzIi8+PC9nPjwvc3ZnPg==;container=0;" parent="GlH7Y8rs6A_fCsLxcxdf-112" vertex="1">
          <mxGeometry x="100" y="28" width="80" height="40" as="geometry" />
        </mxCell>
        <mxCell id="P0AFOmnKXR1hHFCW5aUR-106" value="" style="aspect=fixed;sketch=0;html=1;dashed=0;whitespace=wrap;fillColor=#2875E2;strokeColor=#ffffff;points=[[0.005,0.63,0],[0.1,0.2,0],[0.9,0.2,0],[0.5,0,0],[0.995,0.63,0],[0.72,0.99,0],[0.5,1,0],[0.28,0.99,0]];shape=mxgraph.kubernetes.icon2;kubernetesLabel=1;prIcon=svc;container=0;" parent="GlH7Y8rs6A_fCsLxcxdf-112" vertex="1">
          <mxGeometry x="210" y="20" width="50" height="48" as="geometry" />
        </mxCell>
        <mxCell id="P0AFOmnKXR1hHFCW5aUR-108" value="" style="aspect=fixed;sketch=0;html=1;dashed=0;whitespace=wrap;fillColor=#2875E2;strokeColor=#ffffff;points=[[0.005,0.63,0],[0.1,0.2,0],[0.9,0.2,0],[0.5,0,0],[0.995,0.63,0],[0.72,0.99,0],[0.5,1,0],[0.28,0.99,0]];shape=mxgraph.kubernetes.icon2;kubernetesLabel=1;prIcon=deploy;container=0;" parent="GlH7Y8rs6A_fCsLxcxdf-112" vertex="1">
          <mxGeometry x="20" y="22" width="50" height="48" as="geometry" />
        </mxCell>
        <mxCell id="GlH7Y8rs6A_fCsLxcxdf-31" value="&lt;b&gt;Log visualization&lt;/b&gt;" style="text;html=1;strokeColor=none;fillColor=none;align=center;verticalAlign=middle;whiteSpace=wrap;rounded=0;container=0;" parent="GlH7Y8rs6A_fCsLxcxdf-112" vertex="1">
          <mxGeometry x="10" y="2" width="120" height="20" as="geometry" />
        </mxCell>
        <mxCell id="GlH7Y8rs6A_fCsLxcxdf-115" value="logs, broadcast" style="text;html=1;strokeColor=none;fillColor=none;align=center;verticalAlign=middle;whiteSpace=wrap;rounded=0;" parent="1" vertex="1">
          <mxGeometry x="30" y="147.11" width="90" height="12.89" as="geometry" />
        </mxCell>
        <mxCell id="GlH7Y8rs6A_fCsLxcxdf-116" value="logs" style="text;html=1;strokeColor=none;fillColor=none;align=center;verticalAlign=middle;whiteSpace=wrap;rounded=0;" parent="1" vertex="1">
          <mxGeometry x="324" y="147.11" width="30" height="12.89" as="geometry" />
        </mxCell>
        <mxCell id="GlH7Y8rs6A_fCsLxcxdf-117" value="auth token, arbitrary data" style="text;html=1;strokeColor=none;fillColor=none;align=center;verticalAlign=middle;whiteSpace=wrap;rounded=0;" parent="1" vertex="1">
          <mxGeometry x="18.5" y="-10" width="141.5" height="12.89" as="geometry" />
        </mxCell>
        <mxCell id="GlH7Y8rs6A_fCsLxcxdf-118" value="auth token, arbitrary data" style="text;html=1;strokeColor=none;fillColor=none;align=center;verticalAlign=middle;whiteSpace=wrap;rounded=0;" parent="1" vertex="1">
          <mxGeometry x="248" y="-10" width="141.5" height="12.89" as="geometry" />
        </mxCell>
        <mxCell id="GlH7Y8rs6A_fCsLxcxdf-119" value="Established connections" style="text;html=1;strokeColor=none;fillColor=none;align=center;verticalAlign=middle;whiteSpace=wrap;rounded=0;" parent="1" vertex="1">
          <mxGeometry x="-50" y="-170" width="150" height="12.89" as="geometry" />
        </mxCell>
        <mxCell id="GlH7Y8rs6A_fCsLxcxdf-120" value="Received packets" style="text;html=1;strokeColor=none;fillColor=none;align=center;verticalAlign=middle;whiteSpace=wrap;rounded=0;" parent="1" vertex="1">
          <mxGeometry x="324" y="-170" width="101.5" height="12.89" as="geometry" />
        </mxCell>
        <mxCell id="GlH7Y8rs6A_fCsLxcxdf-121" value="logs" style="text;html=1;strokeColor=none;fillColor=none;align=center;verticalAlign=middle;whiteSpace=wrap;rounded=0;" parent="1" vertex="1">
          <mxGeometry x="90" y="260" width="30" height="12.89" as="geometry" />
        </mxCell>
        <mxCell id="GlH7Y8rs6A_fCsLxcxdf-122" value="echo, login, broadcast, cache/arbitrary data" style="text;html=1;strokeColor=none;fillColor=none;align=center;verticalAlign=middle;whiteSpace=wrap;rounded=0;" parent="1" vertex="1">
          <mxGeometry x="-100" y="-350" width="250" height="12.89" as="geometry" />
        </mxCell>
        <mxCell id="GlH7Y8rs6A_fCsLxcxdf-123" value="echo, login, broadcast, cache/arbitrary data" style="text;html=1;strokeColor=none;fillColor=none;align=center;verticalAlign=middle;whiteSpace=wrap;rounded=0;" parent="1" vertex="1">
          <mxGeometry x="247.25" y="-350" width="255" height="12.89" as="geometry" />
        </mxCell>
      </root>
    </mxGraphModel>
  </diagram>
</mxfile>
